<svg width="16" height="218" viewBox="0 0 16 218" fill="none" xmlns="http://www.w3.org/2000/svg">
<path d="M3 11.025V10.56L5.205 10.35H5.715L7.98 10.56V11.025H3ZM4.455 11.025C4.5 9.345 4.5 7.635 4.5 5.895V5.145C4.5 3.42 4.5 1.71 4.455 0H6.33C6.285 1.68 6.285 3.405 6.285 5.265V5.655C6.285 7.605 6.285 9.33 6.33 11.025H4.455ZM5.4 5.685V5.16H9.09V5.685H5.4ZM8.94 7.29L8.73 5.625V5.205L8.94 3.585H9.555V7.29H8.94ZM3 0.48V0H5.4V0.66H5.205L3 0.48ZM10.605 2.805L9.96 0.0599995L10.875 0.554999H5.4V0H11.265L11.31 2.805H10.605Z" fill="#51515B"/>
<path d="M4 52.215V51.315C4.975 50.175 5.95 49.035 6.685 48.18C8.29 46.275 8.95 45.24 8.95 43.86C8.95 42.345 8.185 41.49 6.88 41.49C6.355 41.49 5.83 41.625 5.23 41.97L5.875 41.535L5.485 43.035C5.35 43.71 5.05 43.905 4.69 43.905C4.375 43.905 4.105 43.725 4 43.41C4.225 41.835 5.71 41.025 7.33 41.025C9.415 41.025 10.45 42.135 10.45 43.905C10.45 45.33 9.46 46.44 7.075 48.75C6.595 49.23 5.635 50.25 4.66 51.255L4.81 50.775V51.015H10.87V52.215H4Z" fill="#51515B"/>
<path d="M4.825 93.66L4.72 93.27C8.035 92.1 9.535 89.85 9.535 86.595C9.535 83.895 8.635 82.68 7.465 82.68C6.37 82.68 5.47 83.655 5.47 85.575C5.47 87.375 6.4 88.425 7.735 88.425C8.53 88.425 9.205 88.065 9.76 87.36L10.075 87.435H9.94C9.46 88.41 8.485 89.04 7.195 89.04C5.35 89.04 4 87.78 4 85.74C4 83.52 5.515 82.215 7.465 82.215C9.655 82.215 11.02 83.895 11.02 86.685C11.02 90.015 8.8 92.7 4.825 93.66Z" fill="#51515B"/>
<path d="M1.06 134.85V134.43L3.175 134.19H4.495L6.445 134.445V134.88L1.06 134.85ZM3.04 134.85C3.07 133.695 3.085 132.525 3.085 131.385V124.71L1 125.04V124.575L4.39 123.72L4.615 123.885L4.555 126.27V131.385C4.555 132.525 4.57 133.695 4.6 134.85H3.04ZM11.4662 135.09C9.2163 135.09 7.83625 133.38 7.83625 130.665C7.83625 127.155 10.4013 124.11 14.4513 123.66L14.5113 123.99C11.1063 124.74 9.3663 127.29 9.3663 130.47C9.3663 133.14 10.1613 134.61 11.4813 134.61C12.5613 134.61 13.4013 133.59 13.4013 131.625C13.4013 129.825 12.6663 128.865 11.4363 128.865C10.6413 128.865 9.9213 129.18 9.1863 130.005L8.90125 129.825H9.00625C9.7713 128.745 10.7613 128.205 11.9613 128.205C13.7913 128.205 14.8713 129.54 14.8713 131.52C14.8713 133.575 13.4613 135.09 11.4662 135.09Z" fill="#51515B"/>
<path d="M0 176.28V175.38C0.975 174.24 1.95 173.1 2.685 172.245C4.29 170.34 4.95 169.305 4.95 167.925C4.95 166.41 4.185 165.555 2.88 165.555C2.355 165.555 1.83 165.69 1.23 166.035L1.875 165.6L1.485 167.1C1.35 167.775 1.05 167.97 0.69 167.97C0.375 167.97 0.105 167.79 0 167.475C0.225 165.9 1.71 165.09 3.33 165.09C5.415 165.09 6.45 166.2 6.45 167.97C6.45 169.395 5.46 170.505 3.075 172.815C2.595 173.295 1.635 174.315 0.66 175.32L0.81 174.84V175.08H6.87V176.28H0ZM11.525 176.52C9.695 176.52 8.57004 175.74 8.28504 174.285C8.40504 173.955 8.66004 173.775 8.97504 173.775C9.38 173.775 9.62 174 9.755 174.645L10.145 176.1L9.53 175.62C10.025 175.89 10.46 176.04 11.09 176.04C12.74 176.04 13.67 175.035 13.67 173.43C13.67 171.75 12.77 170.805 11.015 170.805H10.355V170.28H10.94C12.38 170.28 13.385 169.41 13.385 167.775C13.385 166.365 12.665 165.555 11.39 165.555C10.85 165.555 10.355 165.66 9.755 165.96L10.46 165.54L10.07 166.92C9.935 167.475 9.665 167.655 9.275 167.655C8.99004 167.655 8.75004 167.52 8.64504 167.265C8.87004 165.72 10.235 165.09 11.75 165.09C13.745 165.09 14.87 166.155 14.87 167.73C14.87 169.17 13.835 170.37 11.63 170.61V170.445C14.12 170.565 15.185 171.735 15.185 173.46C15.185 175.305 13.715 176.52 11.525 176.52Z" fill="#51515B"/>
<path d="M3.24 217.95C1.41 217.95 0.285 217.17 0 215.715C0.12 215.385 0.375 215.205 0.69 215.205C1.095 215.205 1.335 215.43 1.47 216.075L1.86 217.53L1.245 217.05C1.74 217.32 2.175 217.47 2.805 217.47C4.455 217.47 5.385 216.465 5.385 214.86C5.385 213.18 4.485 212.235 2.73 212.235H2.07V211.71H2.655C4.095 211.71 5.1 210.84 5.1 209.205C5.1 207.795 4.38 206.985 3.105 206.985C2.565 206.985 2.07 207.09 1.47 207.39L2.175 206.97L1.785 208.35C1.65 208.905 1.38 209.085 0.99 209.085C0.705 209.085 0.465 208.95 0.36 208.695C0.585 207.15 1.95 206.52 3.465 206.52C5.46 206.52 6.585 207.585 6.585 209.16C6.585 210.6 5.55 211.8 3.345 212.04V211.875C5.835 211.995 6.9 213.165 6.9 214.89C6.9 216.735 5.43 217.95 3.24 217.95ZM12.0807 217.95C10.2207 217.95 8.52574 216.285 8.52574 212.205C8.52574 208.17 10.2207 206.52 12.0807 206.52C13.9257 206.52 15.6357 208.17 15.6357 212.205C15.6357 216.285 13.9257 217.95 12.0807 217.95ZM12.0807 217.47C13.1457 217.47 14.1957 216.24 14.1957 212.205C14.1957 208.23 13.1457 207 12.0807 207C11.0007 207 9.9657 208.23 9.9657 212.205C9.9657 216.24 11.0007 217.47 12.0807 217.47Z" fill="#51515B"/>
</svg>
