<svg width="16" height="218" viewBox="0 0 16 218" fill="none" xmlns="http://www.w3.org/2000/svg">
<path d="M2 11.025V10.56L3.74 10.35H4.055L5.825 10.56V11.025H2ZM2.105 0.48V0H4.28V0.66H4.115L2.105 0.48ZM3.545 11.025L3.59 0H4.1L4.205 5.46V11.025H3.545ZM8 11.025L3.845 0.57H3.74V0H5.435L9.05 9.165H8.69L8.78 8.94L12.275 0H12.965V0.57H12.665L12.485 1.02L8.615 11.025H8ZM10.85 11.025V10.56L13.04 10.35H13.4L15.62 10.56V11.025H10.85ZM12.29 11.025C12.335 9.33 12.32 7.605 12.335 6.135L12.395 0H14.15C14.105 1.695 14.105 3.42 14.105 5.145V5.895C14.105 7.635 14.105 9.345 14.15 11.025H12.29ZM13.205 0.66V0H15.59V0.48L13.4 0.66H13.205Z" fill="#51515B"/>
<path d="M8.12 93.39C6.41 93.39 5.255 92.565 5 91.14C5.12 90.825 5.39 90.66 5.705 90.66C6.11 90.66 6.35 90.885 6.455 91.5L6.845 92.925L6.335 92.505C6.845 92.775 7.235 92.91 7.895 92.91C9.56 92.91 10.52 91.845 10.52 89.925C10.52 88.095 9.53 87.21 8.015 87.21C7.385 87.21 6.815 87.315 6.29 87.54L5.9 87.36L6.245 82.185H11.765V83.385H6.5L6.815 82.56L6.485 87.27L6.005 87.105C6.8 86.715 7.55 86.565 8.435 86.565C10.655 86.565 12.08 87.705 12.08 89.865C12.08 92.025 10.505 93.39 8.12 93.39Z" fill="#51515B"/>
<path d="M1.06 134.58V134.16L3.175 133.92H4.495L6.445 134.175V134.61L1.06 134.58ZM3.04 134.58C3.07 133.425 3.085 132.255 3.085 131.115V124.44L1 124.77V124.305L4.39 123.45L4.615 123.615L4.555 126V131.115C4.555 132.255 4.57 133.425 4.6 134.58H3.04ZM7.98625 134.58V133.68C8.96125 132.54 9.9363 131.4 10.6713 130.545C12.2763 128.64 12.9363 127.605 12.9363 126.225C12.9363 124.71 12.1713 123.855 10.8663 123.855C10.3413 123.855 9.8163 123.99 9.2163 124.335L9.8613 123.9L9.4713 125.4C9.3363 126.075 9.0362 126.27 8.67625 126.27C8.36125 126.27 8.09125 126.09 7.98625 125.775C8.21125 124.2 9.6963 123.39 11.3163 123.39C13.4013 123.39 14.4363 124.5 14.4363 126.27C14.4363 127.695 13.4463 128.805 11.0613 131.115C10.5813 131.595 9.6213 132.615 8.64625 133.62L8.79625 133.14V133.38H14.8563V134.58H7.98625Z" fill="#51515B"/>
<path d="M1.06 175.8V175.38L3.175 175.14H4.495L6.445 175.395V175.83L1.06 175.8ZM3.04 175.8C3.07 174.645 3.085 173.475 3.085 172.335V165.66L1 165.99V165.525L4.39 164.67L4.615 164.835L4.555 167.22V172.335C4.555 173.475 4.57 174.645 4.6 175.8H3.04ZM8.63125 176.055L8.52625 175.665C11.8413 174.495 13.3413 172.245 13.3413 168.99C13.3413 166.29 12.4413 165.075 11.2713 165.075C10.1763 165.075 9.2763 166.05 9.2763 167.97C9.2763 169.77 10.2063 170.82 11.5413 170.82C12.3363 170.82 13.0113 170.46 13.5663 169.755L13.8813 169.83H13.7463C13.2663 170.805 12.2913 171.435 11.0013 171.435C9.1563 171.435 7.80625 170.175 7.80625 168.135C7.80625 165.915 9.3213 164.61 11.2713 164.61C13.4613 164.61 14.8263 166.29 14.8263 169.08C14.8263 172.41 12.6063 175.095 8.63125 176.055Z" fill="#51515B"/>
<path d="M0 217.245V216.345C0.975 215.205 1.95 214.065 2.685 213.21C4.29 211.305 4.95 210.27 4.95 208.89C4.95 207.375 4.185 206.52 2.88 206.52C2.355 206.52 1.83 206.655 1.23 207L1.875 206.565L1.485 208.065C1.35 208.74 1.05 208.935 0.69 208.935C0.375 208.935 0.105 208.755 0 208.44C0.225 206.865 1.71 206.055 3.33 206.055C5.415 206.055 6.45 207.165 6.45 208.935C6.45 210.36 5.46 211.47 3.075 213.78C2.595 214.26 1.635 215.28 0.66 216.285L0.81 215.805V216.045H6.87V217.245H0ZM12.02 217.485C9.77 217.485 8.39004 215.775 8.39004 213.06C8.39004 209.55 10.955 206.505 15.005 206.055L15.065 206.385C11.66 207.135 9.92 209.685 9.92 212.865C9.92 215.535 10.715 217.005 12.035 217.005C13.115 217.005 13.955 215.985 13.955 214.02C13.955 212.22 13.22 211.26 11.99 211.26C11.195 211.26 10.475 211.575 9.74 212.4L9.455 212.22H9.56C10.325 211.14 11.315 210.6 12.515 210.6C14.345 210.6 15.425 211.935 15.425 213.915C15.425 215.97 14.015 217.485 12.02 217.485Z" fill="#51515B"/>
</svg>
