<svg width="16" height="218" viewBox="0 0 16 218" fill="none" xmlns="http://www.w3.org/2000/svg">
<path d="M4.215 11.1L1.035 0H2.91L5.4 9.42H5.13L5.205 9.195L7.89 0H8.895L11.64 9.48H11.385L11.43 9.24L13.89 0H14.61L11.475 11.1H10.5L7.68 1.785H7.965L7.905 2.01L5.19 11.1H4.215ZM0 0.48V0H4.56V0.48L2.475 0.66H2.07L0 0.48ZM6.225 0.48V0H10.695V0.48L8.745 0.66H8.085L6.225 0.48ZM12.24 0.48V0H15.885V0.48L14.235 0.66H13.89L12.24 0.48Z" fill="#51515B"/>
<path d="M6.44 93.225L6.32 93.12L11.105 82.995L10.94 83.7V83.46H5V82.26H11.63V83.025L7.7 93.225H6.44Z" fill="#51515B"/>
<path d="M1.06 134.37V133.95L3.175 133.71H4.495L6.445 133.965V134.4L1.06 134.37ZM3.04 134.37C3.07 133.215 3.085 132.045 3.085 130.905V124.23L1 124.56V124.095L4.39 123.24L4.615 123.405L4.555 125.79V130.905C4.555 132.045 4.57 133.215 4.6 134.37H3.04ZM12.1113 134.64V131.22V124.215H11.9163L12.4563 123.99L10.3113 127.335L8.0313 130.875L8.1663 130.35V130.56H15.2013V131.565H7.5512V130.755L12.4413 123.225H13.4463V134.64H12.1113Z" fill="#51515B"/>
<path d="M1 175.83V174.93C1.975 173.79 2.95 172.65 3.685 171.795C5.29 169.89 5.95 168.855 5.95 167.475C5.95 165.96 5.185 165.105 3.88 165.105C3.355 165.105 2.83 165.24 2.23 165.585L2.875 165.15L2.485 166.65C2.35 167.325 2.05 167.52 1.69 167.52C1.375 167.52 1.105 167.34 1 167.025C1.225 165.45 2.71 164.64 4.33 164.64C6.415 164.64 7.45 165.75 7.45 167.52C7.45 168.945 6.46 170.055 4.075 172.365C3.595 172.845 2.635 173.865 1.66 174.87L1.81 174.39V174.63H7.87V175.83H1ZM9.645 175.83V175.41L11.76 175.17H13.08L15.03 175.425V175.86L9.645 175.83ZM11.625 175.83C11.655 174.675 11.67 173.505 11.67 172.365V165.69L9.585 166.02V165.555L12.975 164.7L13.2 164.865L13.14 167.25V172.365C13.14 173.505 13.155 174.675 13.185 175.83H11.625Z" fill="#51515B"/>
<path d="M0 217.05V216.15C0.975 215.01 1.95 213.87 2.685 213.015C4.29 211.11 4.95 210.075 4.95 208.695C4.95 207.18 4.185 206.325 2.88 206.325C2.355 206.325 1.83 206.46 1.23 206.805L1.875 206.37L1.485 207.87C1.35 208.545 1.05 208.74 0.69 208.74C0.375 208.74 0.105 208.56 0 208.245C0.225 206.67 1.71 205.86 3.33 205.86C5.415 205.86 6.45 206.97 6.45 208.74C6.45 210.165 5.46 211.275 3.075 213.585C2.595 214.065 1.635 215.085 0.66 216.09L0.81 215.61V215.85H6.87V217.05H0ZM11.765 217.29C9.59 217.29 8.45 216.225 8.45 214.665C8.45 213.285 9.395 212.34 11.21 211.635V211.56L11.525 211.77C10.235 212.565 9.71 213.33 9.71 214.5C9.71 215.97 10.505 216.81 11.84 216.81C13.175 216.81 13.955 216.015 13.955 214.785C13.955 213.675 13.325 212.79 11.255 211.89C9.5 211.14 8.75 210 8.75 208.62C8.75 206.925 10.13 205.86 11.915 205.86C13.82 205.86 14.87 206.94 14.87 208.38C14.87 209.445 14.21 210.495 12.335 211.26V211.32L12.08 211.14C13.205 210.345 13.67 209.535 13.67 208.335C13.67 207.24 13.04 206.34 11.87 206.34C10.895 206.34 10.025 207.045 10.025 208.215C10.025 209.235 10.505 210.165 12.41 210.99C14.465 211.89 15.305 212.895 15.305 214.365C15.305 216.135 13.94 217.29 11.765 217.29Z" fill="#51515B"/>
</svg>
