<svg width="16" height="218" viewBox="0 0 16 218" fill="none" xmlns="http://www.w3.org/2000/svg">
<path d="M5.205 11.025V10.56L7.5 10.35H7.995L10.335 10.56V11.025H5.205ZM6.825 11.025C6.87 9.345 6.87 7.635 6.87 5.895V5.145C6.87 3.42 6.87 1.71 6.825 0H8.7C8.655 1.68 8.655 3.405 8.655 5.145V5.895C8.655 7.605 8.655 9.33 8.7 11.025H6.825ZM3 3L3.09 0H12.435L12.54 3H11.805L11.115 0L11.955 0.554999H3.57L4.425 0L3.735 3H3Z" fill="#51515B"/>
<path d="M7.63 93.615C5.38 93.615 4 91.905 4 89.19C4 85.68 6.565 82.635 10.615 82.185L10.675 82.515C7.27 83.265 5.53 85.815 5.53 88.995C5.53 91.665 6.325 93.135 7.645 93.135C8.725 93.135 9.565 92.115 9.565 90.15C9.565 88.35 8.83 87.39 7.6 87.39C6.805 87.39 6.085 87.705 5.35 88.53L5.065 88.35H5.17C5.935 87.27 6.925 86.73 8.125 86.73C9.955 86.73 11.035 88.065 11.035 90.045C11.035 92.1 9.625 93.615 7.63 93.615Z" fill="#51515B"/>
<path d="M1.06 134.805V134.385L3.175 134.145H4.495L6.445 134.4V134.835L1.06 134.805ZM3.04 134.805C3.07 133.65 3.085 132.48 3.085 131.34V124.665L1 124.995V124.53L4.39 123.675L4.615 123.84L4.555 126.225V131.34C4.555 132.48 4.57 133.65 4.6 134.805H3.04ZM10.9713 135.045C9.1413 135.045 8.01625 134.265 7.73125 132.81C7.85125 132.48 8.10625 132.3 8.42125 132.3C8.82625 132.3 9.0663 132.525 9.2013 133.17L9.5913 134.625L8.97625 134.145C9.4713 134.415 9.9063 134.565 10.5363 134.565C12.1863 134.565 13.1163 133.56 13.1163 131.955C13.1163 130.275 12.2163 129.33 10.4613 129.33H9.8013V128.805H10.3863C11.8263 128.805 12.8313 127.935 12.8313 126.3C12.8313 124.89 12.1113 124.08 10.8363 124.08C10.2963 124.08 9.8013 124.185 9.2013 124.485L9.9063 124.065L9.5163 125.445C9.3813 126 9.1113 126.18 8.72125 126.18C8.43625 126.18 8.19625 126.045 8.09125 125.79C8.31625 124.245 9.6813 123.615 11.1963 123.615C13.1913 123.615 14.3163 124.68 14.3163 126.255C14.3163 127.695 13.2813 128.895 11.0763 129.135V128.97C13.5663 129.09 14.6312 130.26 14.6312 131.985C14.6312 133.83 13.1613 135.045 10.9713 135.045Z" fill="#51515B"/>
<path d="M0 176.235V175.335C0.975 174.195 1.95 173.055 2.685 172.2C4.29 170.295 4.95 169.26 4.95 167.88C4.95 166.365 4.185 165.51 2.88 165.51C2.355 165.51 1.83 165.645 1.23 165.99L1.875 165.555L1.485 167.055C1.35 167.73 1.05 167.925 0.69 167.925C0.375 167.925 0.105 167.745 0 167.43C0.225 165.855 1.71 165.045 3.33 165.045C5.415 165.045 6.45 166.155 6.45 167.925C6.45 169.35 5.46 170.46 3.075 172.77C2.595 173.25 1.635 174.27 0.66 175.275L0.81 174.795V175.035H6.87V176.235H0ZM11.855 176.475C9.995 176.475 8.30004 174.81 8.30004 170.73C8.30004 166.695 9.995 165.045 11.855 165.045C13.7 165.045 15.41 166.695 15.41 170.73C15.41 174.81 13.7 176.475 11.855 176.475ZM11.855 175.995C12.92 175.995 13.97 174.765 13.97 170.73C13.97 166.755 12.92 165.525 11.855 165.525C10.775 165.525 9.74 166.755 9.74 170.73C9.74 174.765 10.775 175.995 11.855 175.995Z" fill="#51515B"/>
<path d="M0 217.665V216.765C0.975 215.625 1.95 214.485 2.685 213.63C4.29 211.725 4.95 210.69 4.95 209.31C4.95 207.795 4.185 206.94 2.88 206.94C2.355 206.94 1.83 207.075 1.23 207.42L1.875 206.985L1.485 208.485C1.35 209.16 1.05 209.355 0.69 209.355C0.375 209.355 0.105 209.175 0 208.86C0.225 207.285 1.71 206.475 3.33 206.475C5.415 206.475 6.45 207.585 6.45 209.355C6.45 210.78 5.46 211.89 3.075 214.2C2.595 214.68 1.635 215.7 0.66 216.705L0.81 216.225V216.465H6.87V217.665H0ZM9.89 217.665L9.77 217.56L14.555 207.435L14.39 208.14V207.9H8.45V206.7H15.08V207.465L11.15 217.665H9.89Z" fill="#51515B"/>
</svg>
