<svg width="16" height="218" viewBox="0 0 16 218" fill="none" xmlns="http://www.w3.org/2000/svg">
<path d="M5.205 11.025V10.56L7.5 10.35H7.995L10.335 10.56V11.025H5.205ZM6.825 11.025C6.87 9.345 6.87 7.635 6.87 5.895V5.145C6.87 3.42 6.87 1.71 6.825 0H8.7C8.655 1.68 8.655 3.405 8.655 5.145V5.895C8.655 7.605 8.655 9.33 8.7 11.025H6.825ZM3 3L3.09 0H12.435L12.54 3H11.805L11.115 0L11.955 0.554999H3.57L4.425 0L3.735 3H3Z" fill="#51515B"/>
<path d="M5.06 52.155V51.735L7.175 51.495H8.495L10.445 51.75V52.185L5.06 52.155ZM7.04 52.155C7.07 51 7.085 49.83 7.085 48.69V42.015L5 42.345V41.88L8.39 41.025L8.615 41.19L8.555 43.575V48.69C8.555 49.83 8.57 51 8.6 52.155H7.04Z" fill="#51515B"/>
<path d="M7.315 93.615C5.14 93.615 4 92.55 4 90.99C4 89.61 4.945 88.665 6.76 87.96V87.885L7.075 88.095C5.785 88.89 5.26 89.655 5.26 90.825C5.26 92.295 6.055 93.135 7.39 93.135C8.725 93.135 9.505 92.34 9.505 91.11C9.505 90 8.875 89.115 6.805 88.215C5.05 87.465 4.3 86.325 4.3 84.945C4.3 83.25 5.68 82.185 7.465 82.185C9.37 82.185 10.42 83.265 10.42 84.705C10.42 85.77 9.76 86.82 7.885 87.585V87.645L7.63 87.465C8.755 86.67 9.22 85.86 9.22 84.66C9.22 83.565 8.59 82.665 7.42 82.665C6.445 82.665 5.575 83.37 5.575 84.54C5.575 85.56 6.055 86.49 7.96 87.315C10.015 88.215 10.855 89.22 10.855 90.69C10.855 92.46 9.49 93.615 7.315 93.615Z" fill="#51515B"/>
<path d="M1.06 134.745V134.325L3.175 134.085H4.495L6.445 134.34V134.775L1.06 134.745ZM3.04 134.745C3.07 133.59 3.085 132.42 3.085 131.28V124.605L1 124.935V124.47L4.39 123.615L4.615 123.78L4.555 126.165V131.28C4.555 132.42 4.57 133.59 4.6 134.745H3.04ZM10.8062 134.985C9.0963 134.985 7.94125 134.16 7.68625 132.735C7.80625 132.42 8.07625 132.255 8.39125 132.255C8.79625 132.255 9.0362 132.48 9.1413 133.095L9.5313 134.52L9.02125 134.1C9.5313 134.37 9.9213 134.505 10.5813 134.505C12.2463 134.505 13.2063 133.44 13.2063 131.52C13.2063 129.69 12.2163 128.805 10.7013 128.805C10.0713 128.805 9.5013 128.91 8.97625 129.135L8.58625 128.955L8.93125 123.78H14.4513V124.98H9.1863L9.5013 124.155L9.1713 128.865L8.69125 128.7C9.4863 128.31 10.2363 128.16 11.1213 128.16C13.3413 128.16 14.7662 129.3 14.7662 131.46C14.7662 133.62 13.1913 134.985 10.8062 134.985Z" fill="#51515B"/>
<path d="M0 176.175V175.275C0.975 174.135 1.95 172.995 2.685 172.14C4.29 170.235 4.95 169.2 4.95 167.82C4.95 166.305 4.185 165.45 2.88 165.45C2.355 165.45 1.83 165.585 1.23 165.93L1.875 165.495L1.485 166.995C1.35 167.67 1.05 167.865 0.69 167.865C0.375 167.865 0.105 167.685 0 167.37C0.225 165.795 1.71 164.985 3.33 164.985C5.415 164.985 6.45 166.095 6.45 167.865C6.45 169.29 5.46 170.4 3.075 172.71C2.595 173.19 1.635 174.21 0.66 175.215L0.81 174.735V174.975H6.87V176.175H0ZM8.54004 176.175V175.275C9.515 174.135 10.49 172.995 11.225 172.14C12.83 170.235 13.49 169.2 13.49 167.82C13.49 166.305 12.725 165.45 11.42 165.45C10.895 165.45 10.37 165.585 9.77 165.93L10.415 165.495L10.025 166.995C9.89 167.67 9.59 167.865 9.23 167.865C8.91504 167.865 8.64504 167.685 8.54004 167.37C8.76504 165.795 10.25 164.985 11.87 164.985C13.955 164.985 14.99 166.095 14.99 167.865C14.99 169.29 14 170.4 11.615 172.71C11.135 173.19 10.175 174.21 9.2 175.215L9.35 174.735V174.975H15.41V176.175H8.54004Z" fill="#51515B"/>
<path d="M0 217.365V216.465C0.975 215.325 1.95 214.185 2.685 213.33C4.29 211.425 4.95 210.39 4.95 209.01C4.95 207.495 4.185 206.64 2.88 206.64C2.355 206.64 1.83 206.775 1.23 207.12L1.875 206.685L1.485 208.185C1.35 208.86 1.05 209.055 0.69 209.055C0.375 209.055 0.105 208.875 0 208.56C0.225 206.985 1.71 206.175 3.33 206.175C5.415 206.175 6.45 207.285 6.45 209.055C6.45 210.48 5.46 211.59 3.075 213.9C2.595 214.38 1.635 215.4 0.66 216.405L0.81 215.925V216.165H6.87V217.365H0ZM9.185 217.62L9.08 217.23C12.395 216.06 13.895 213.81 13.895 210.555C13.895 207.855 12.995 206.64 11.825 206.64C10.73 206.64 9.83 207.615 9.83 209.535C9.83 211.335 10.76 212.385 12.095 212.385C12.89 212.385 13.565 212.025 14.12 211.32L14.435 211.395H14.3C13.82 212.37 12.845 213 11.555 213C9.71 213 8.36004 211.74 8.36004 209.7C8.36004 207.48 9.875 206.175 11.825 206.175C14.015 206.175 15.38 207.855 15.38 210.645C15.38 213.975 13.16 216.66 9.185 217.62Z" fill="#51515B"/>
</svg>
