<svg width="38" height="244" viewBox="0 0 38 244" fill="none" xmlns="http://www.w3.org/2000/svg">
<path d="M18.285 11.565C17.055 11.565 15.795 11.205 15 10.695L15.09 8.31H15.81L16.44 10.995L15.615 10.635L15.495 10.11C16.47 10.8 17.1 10.98 18.135 10.98C19.71 10.98 20.685 10.26 20.685 8.925C20.685 7.86 20.205 7.305 18.735 6.675L18.06 6.39C16.185 5.58 15.21 4.62 15.21 2.985C15.21 1.05 16.8 0 18.93 0C20.085 0 21 0.315 21.765 0.84L21.675 3.09H20.94L20.34 0.525L21.195 0.915L21.285 1.455C20.475 0.81 19.95 0.585 19.095 0.585C17.73 0.585 16.77 1.245 16.77 2.49C16.77 3.585 17.43 4.185 18.57 4.665L19.29 4.98C21.555 5.955 22.305 6.81 22.305 8.4C22.305 10.32 20.775 11.565 18.285 11.565Z" fill="#51515B"/>
<path d="M2.91 241.7C2.63 241.7 2.39 241.68 2.06 241.59V243.58H0.72V236.28H1.67L1.83 236.72C2.18 236.38 2.63 236.12 3.34 236.12C4.72 236.12 5.34 237.15 5.34 238.82C5.34 240.57 4.34 241.7 2.91 241.7ZM2.88 237.2C2.62 237.2 2.29 237.28 2.06 237.39V240.66C2.15 240.68 2.36 240.69 2.54 240.69C3.6 240.69 3.98 239.96 3.98 238.82C3.98 237.84 3.75 237.2 2.88 237.2ZM6.48172 241.55V236.28H7.43172L7.62172 236.79C8.05172 236.37 8.67172 236.12 9.26172 236.12C9.90172 236.12 10.3617 236.34 10.6217 236.79C11.0617 236.36 11.6617 236.12 12.2417 236.12C13.2917 236.12 13.8617 236.72 13.8617 238.05V241.55H12.5217V238.13C12.5217 237.54 12.3017 237.29 11.6817 237.29C11.4017 237.29 11.0617 237.35 10.8417 237.44V241.55H9.50172V238.13C9.50172 237.54 9.29172 237.29 8.67172 237.29C8.44172 237.29 8.04172 237.35 7.82172 237.44V241.55H6.48172ZM17.003 241.43L17.343 240.42C17.913 240.6 18.383 240.65 18.833 240.65C19.833 240.65 20.403 240.31 20.403 239.55C20.403 238.86 19.793 238.65 18.693 238.65H18.133V237.59H18.753C19.773 237.59 20.243 237.33 20.243 236.57C20.243 236.12 19.953 235.65 19.073 235.65C18.543 235.65 18.043 235.84 17.653 236.14L17.073 235.32C17.493 234.93 18.213 234.55 19.253 234.55C20.683 234.55 21.553 235.29 21.553 236.28C21.553 237.08 21.203 237.73 20.423 238.05C21.143 238.18 21.793 238.63 21.793 239.61C21.793 241.04 20.603 241.78 18.993 241.78C18.283 241.78 17.653 241.67 17.003 241.43ZM23.8614 240.82L22.8414 239.81L23.8614 238.79L24.8814 239.81L23.8614 240.82ZM23.8614 237.08L22.8414 236.07L23.8614 235.04L24.8814 236.07L23.8614 237.08ZM27.6432 240.55H30.6032V241.68H26.0632L25.8232 240.73L28.2932 238.23C28.8832 237.64 29.1432 237.3 29.1432 236.73C29.1432 236.19 28.8232 235.76 28.0032 235.76C27.3632 235.76 26.8732 236.07 26.4632 236.46L25.7832 235.63C26.1432 235.21 26.9232 234.6 28.1532 234.6C29.6732 234.6 30.4432 235.58 30.4432 236.63C30.4432 237.62 29.9632 238.17 29.2832 238.87L27.6432 240.55ZM34.34 241.78C32.68 241.78 31.7 240.57 31.7 238.16C31.7 235.8 32.67 234.55 34.34 234.55C36 234.55 36.99 235.8 36.99 238.16C36.99 240.61 35.97 241.78 34.34 241.78ZM34.34 235.7C33.5 235.7 33.08 236.49 33.08 238.16C33.08 239.82 33.47 240.63 34.34 240.63C35.13 240.63 35.6 239.9 35.6 238.16C35.6 236.5 35.17 235.7 34.34 235.7Z" fill="#00456C"/>
<path d="M19.5 195C28.6127 195 36 202.387 36 211.5C36 220.613 28.6127 228 19.5 228C10.3873 228 3 220.613 3 211.5C3 202.387 10.3873 195 19.5 195ZM15.4648 206C13.95 206 12.5855 206.63 12.3604 208.175C12.4654 208.43 12.7052 208.565 12.9902 208.565C13.3801 208.565 13.6502 208.385 13.7852 207.83L14.1309 206.604C14.4616 206.504 14.7753 206.465 15.1055 206.465C16.38 206.465 17.0995 207.275 17.0996 208.685C17.0996 210.319 16.0951 211.19 14.6553 211.19H14.0703V211.715H14.7305C16.4851 211.715 17.3847 212.66 17.3848 214.34C17.3848 215.945 16.4547 216.95 14.8047 216.95C14.4152 216.95 14.1005 216.892 13.7998 216.784L13.4697 215.555C13.3348 214.91 13.0951 214.685 12.6904 214.685C12.3754 214.685 12.12 214.865 12 215.195C12.2851 216.65 13.4104 217.43 15.2402 217.43C17.4301 217.43 18.9003 216.215 18.9004 214.37C18.9004 212.799 18.0165 211.692 15.9785 211.415C17.7484 211.031 18.585 209.934 18.585 208.64C18.5848 207.065 17.4597 206 15.4648 206ZM21 206.855V207.32L23.085 206.99V213.665C23.085 214.593 23.0726 215.54 23.0527 216.483L21.0596 216.71V217.13L26.4453 217.16V216.725L24.5869 216.481C24.5671 215.539 24.5547 214.592 24.5547 213.665V208.55L24.6152 206.165L24.3896 206L21 206.855Z" fill="#00456C" fill-opacity="0.8"/>
<path d="M19.24 52.995C17.41 52.995 16.285 52.215 16 50.76C16.12 50.43 16.375 50.25 16.69 50.25C17.095 50.25 17.335 50.475 17.47 51.12L17.86 52.575L17.245 52.095C17.74 52.365 18.175 52.515 18.805 52.515C20.455 52.515 21.385 51.51 21.385 49.905C21.385 48.225 20.485 47.28 18.73 47.28H18.07V46.755H18.655C20.095 46.755 21.1 45.885 21.1 44.25C21.1 42.84 20.38 42.03 19.105 42.03C18.565 42.03 18.07 42.135 17.47 42.435L18.175 42.015L17.785 43.395C17.65 43.95 17.38 44.13 16.99 44.13C16.705 44.13 16.465 43.995 16.36 43.74C16.585 42.195 17.95 41.565 19.465 41.565C21.46 41.565 22.585 42.63 22.585 44.205C22.585 45.645 21.55 46.845 19.345 47.085V46.92C21.835 47.04 22.9 48.21 22.9 49.935C22.9 51.78 21.43 52.995 19.24 52.995Z" fill="#51515B"/>
<path d="M12.06 94.185V93.765L14.175 93.525H15.495L17.445 93.78V94.215L12.06 94.185ZM14.04 94.185C14.07 93.03 14.085 91.86 14.085 90.72V84.045L12 84.375V83.91L15.39 83.055L15.615 83.22L15.555 85.605V90.72C15.555 91.86 15.57 93.03 15.6 94.185H14.04ZM22.3013 94.425C20.4413 94.425 18.7462 92.76 18.7462 88.68C18.7462 84.645 20.4413 82.995 22.3013 82.995C24.1463 82.995 25.8563 84.645 25.8563 88.68C25.8563 92.76 24.1463 94.425 22.3013 94.425ZM22.3013 93.945C23.3663 93.945 24.4163 92.715 24.4163 88.68C24.4163 84.705 23.3663 83.475 22.3013 83.475C21.2213 83.475 20.1863 84.705 20.1863 88.68C20.1863 92.715 21.2213 93.945 22.3013 93.945Z" fill="#51515B"/>
<path d="M12.06 135.555V135.135L14.175 134.895H15.495L17.445 135.15V135.585L12.06 135.555ZM14.04 135.555C14.07 134.4 14.085 133.23 14.085 132.09V125.415L12 125.745V125.28L15.39 124.425L15.615 124.59L15.555 126.975V132.09C15.555 133.23 15.57 134.4 15.6 135.555H14.04ZM20.3363 135.555L20.2163 135.45L25.0013 125.325L24.8363 126.03V125.79H18.8963V124.59H25.5263V125.355L21.5963 135.555H20.3363Z" fill="#51515B"/>
<path d="M11 176.775V175.875C11.975 174.735 12.95 173.595 13.685 172.74C15.29 170.835 15.95 169.8 15.95 168.42C15.95 166.905 15.185 166.05 13.88 166.05C13.355 166.05 12.83 166.185 12.23 166.53L12.875 166.095L12.485 167.595C12.35 168.27 12.05 168.465 11.69 168.465C11.375 168.465 11.105 168.285 11 167.97C11.225 166.395 12.71 165.585 14.33 165.585C16.415 165.585 17.45 166.695 17.45 168.465C17.45 169.89 16.46 171 14.075 173.31C13.595 173.79 12.635 174.81 11.66 175.815L11.81 175.335V175.575H17.87V176.775H11ZM23.665 177.045V173.625V166.62H23.47L24.01 166.395L21.865 169.74L19.585 173.28L19.72 172.755V172.965H26.755V173.97H19.105V173.16L23.995 165.63H25V177.045H23.665Z" fill="#51515B"/>
</svg>
