<svg width="16" height="219" viewBox="0 0 16 219" fill="none" xmlns="http://www.w3.org/2000/svg">
<path d="M7.285 11.565C6.055 11.565 4.795 11.205 4 10.695L4.09 8.31H4.81L5.44 10.995L4.615 10.635L4.495 10.11C5.47 10.8 6.1 10.98 7.135 10.98C8.71 10.98 9.685 10.26 9.685 8.925C9.685 7.86 9.205 7.305 7.735 6.675L7.06 6.39C5.185 5.58 4.21 4.62 4.21 2.985C4.21 1.05 5.8 0 7.93 0C9.085 0 10 0.315 10.765 0.84L10.675 3.09H9.94L9.34 0.525L10.195 0.915L10.285 1.455C9.475 0.81 8.95 0.585 8.095 0.585C6.73 0.585 5.77 1.245 5.77 2.49C5.77 3.585 6.43 4.185 7.57 4.665L8.29 4.98C10.555 5.955 11.305 6.81 11.305 8.4C11.305 10.32 9.775 11.565 7.285 11.565Z" fill="#D95858"/>
<path d="M8.545 94.14V90.72V90.495V83.7H8.365L8.905 83.49L6.745 86.835L4.48 90.36L4.6 89.835V90.06H11.635V91.05H4V90.255L8.89 82.725H9.88V94.14H8.545Z" fill="#D95858"/>
<path d="M1.06 135.27V134.85L3.175 134.61H4.495L6.445 134.865V135.3L1.06 135.27ZM3.04 135.27C3.07 134.115 3.085 132.945 3.085 131.805V125.13L1 125.46V124.995L4.39 124.14L4.615 124.305L4.555 126.69V131.805C4.555 132.945 4.57 134.115 4.6 135.27H3.04ZM8.0913 135.27V134.85L10.2063 134.61H11.5263L13.4763 134.865V135.3L8.0913 135.27ZM10.0713 135.27C10.1013 134.115 10.1163 132.945 10.1163 131.805V125.13L8.0313 125.46V124.995L11.4213 124.14L11.6463 124.305L11.5863 126.69V131.805C11.5863 132.945 11.6013 134.115 11.6313 135.27H10.0713Z" fill="#D95858"/>
<path d="M1.06 176.49V176.07L3.175 175.83H4.495L6.445 176.085V176.52L1.06 176.49ZM3.04 176.49C3.07 175.335 3.085 174.165 3.085 173.025V166.35L1 166.68V166.215L4.39 165.36L4.615 165.525L4.555 167.91V173.025C4.555 174.165 4.57 175.335 4.6 176.49H3.04ZM11.2113 176.73C9.0362 176.73 7.89625 175.665 7.89625 174.105C7.89625 172.725 8.84125 171.78 10.6563 171.075V171L10.9713 171.21C9.6813 172.005 9.1563 172.77 9.1563 173.94C9.1563 175.41 9.9513 176.25 11.2863 176.25C12.6213 176.25 13.4013 175.455 13.4013 174.225C13.4013 173.115 12.7713 172.23 10.7013 171.33C8.94625 170.58 8.19625 169.44 8.19625 168.06C8.19625 166.365 9.5763 165.3 11.3613 165.3C13.2663 165.3 14.3163 166.38 14.3163 167.82C14.3163 168.885 13.6563 169.935 11.7813 170.7V170.76L11.5263 170.58C12.6513 169.785 13.1163 168.975 13.1163 167.775C13.1163 166.68 12.4863 165.78 11.3163 165.78C10.3413 165.78 9.4713 166.485 9.4713 167.655C9.4713 168.675 9.9513 169.605 11.8563 170.43C13.9113 171.33 14.7513 172.335 14.7513 173.805C14.7513 175.575 13.3863 176.73 11.2113 176.73Z" fill="#D95858"/>
<path d="M0 217.935V217.02C0.49 216.46 0.965 215.905 1.425 215.355C1.885 214.805 2.3 214.32 2.67 213.9C3.21 213.26 3.645 212.705 3.975 212.235C4.305 211.755 4.55 211.305 4.71 210.885C4.87 210.465 4.95 210.025 4.95 209.565C4.95 208.805 4.765 208.225 4.395 207.825C4.035 207.415 3.525 207.21 2.865 207.21C2.605 207.21 2.34 207.245 2.07 207.315C1.81 207.385 1.53 207.51 1.23 207.69L1.875 207.255L1.485 208.755C1.405 209.085 1.295 209.315 1.155 209.445C1.015 209.565 0.86 209.625 0.69 209.625C0.52 209.625 0.375 209.58 0.255 209.49C0.135 209.39 0.05 209.265 0 209.115C0.07 208.585 0.265 208.145 0.585 207.795C0.915 207.445 1.32 207.18 1.8 207C2.28 206.82 2.785 206.73 3.315 206.73C4.365 206.73 5.145 206.99 5.655 207.51C6.175 208.03 6.435 208.735 6.435 209.625C6.435 210.095 6.32 210.555 6.09 211.005C5.86 211.445 5.495 211.94 4.995 212.49C4.505 213.03 3.865 213.69 3.075 214.47C2.905 214.62 2.695 214.83 2.445 215.1C2.195 215.36 1.915 215.655 1.605 215.985C1.295 216.305 0.98 216.635 0.66 216.975L0.795 216.495V216.735H6.87V217.935H0ZM11.345 218.16C10.495 218.16 9.795 217.965 9.245 217.575C8.69504 217.185 8.36004 216.635 8.24004 215.925C8.30004 215.765 8.39004 215.645 8.51004 215.565C8.63004 215.485 8.77004 215.445 8.93004 215.445C9.14 215.445 9.305 215.51 9.425 215.64C9.545 215.76 9.635 215.97 9.695 216.27L10.07 217.695L9.56 217.275C9.82 217.415 10.065 217.52 10.295 217.59C10.525 217.65 10.805 217.68 11.135 217.68C11.965 217.68 12.605 217.425 13.055 216.915C13.515 216.395 13.745 215.66 13.745 214.71C13.745 213.79 13.515 213.11 13.055 212.67C12.605 212.22 12.005 211.995 11.255 211.995C10.935 211.995 10.63 212.02 10.34 212.07C10.06 212.12 9.79 212.205 9.53 212.325L9.125 212.145L9.485 206.955H14.99V208.17H9.74L10.04 207.345L9.725 212.04L9.23 211.89C9.64 211.69 10.04 211.55 10.43 211.47C10.82 211.38 11.23 211.335 11.66 211.335C12.78 211.335 13.665 211.615 14.315 212.175C14.975 212.735 15.305 213.555 15.305 214.635C15.305 215.355 15.14 215.98 14.81 216.51C14.48 217.03 14.02 217.435 13.43 217.725C12.84 218.015 12.145 218.16 11.345 218.16Z" fill="#D95858"/>
</svg>
