<?xml version="1.0" encoding="UTF-8"?>
<svg version="1.1" xmlns="http://www.w3.org/2000/svg" width="1536" height="1024">
<path d="M0 0 C506.88 0 1013.76 0 1536 0 C1536 337.92 1536 675.84 1536 1024 C1029.12 1024 522.24 1024 0 1024 C0 686.08 0 348.16 0 0 Z " fill="#FAFAFA" transform="translate(0,0)"/>
<path d="M0 0 C194.37 0 388.74 0 589 0 C589 16.5 589 33 589 50 C578.44 50 567.88 50 557 50 C557 60.89 557 71.78 557 83 C567.56 83 578.12 83 589 83 C589 93.89 589 104.78 589 116 C578.44 116 567.88 116 557 116 C557 126.56 557 137.12 557 148 C567.89 148 578.78 148 590 148 C590.0918838 170.05211117 589.7941234 191.96307578 589 214 C573.655 214.495 573.655 214.495 558 215 C557.95416457 222.22671984 557.91431615 229.45293827 557.89013672 236.6796875 C557.88006017 239.13966579 557.86639869 241.59963206 557.84912109 244.05957031 C557.82494539 247.58922285 557.8135336 251.11871747 557.8046875 254.6484375 C557.79436493 255.75367767 557.78404236 256.85891785 557.77340698 257.99765015 C557.77325592 259.01855743 557.77310486 260.03946472 557.77294922 261.09130859 C557.768508 261.99287689 557.76406677 262.89444519 557.75949097 263.82333374 C557.79368862 266.21046916 557.79368862 266.21046916 560 268 C560 268.99 560 269.98 560 271 C560.52722656 271.21785156 561.05445313 271.43570312 561.59765625 271.66015625 C564.9024159 273.50329862 567.60899839 275.95211914 570.4375 278.4375 C571.69359016 279.5291296 572.95011017 280.62026475 574.20703125 281.7109375 C574.8407666 282.26233398 575.47450195 282.81373047 576.12744141 283.38183594 C578.40485721 285.34985575 580.7089282 287.28430113 583.01708984 289.21606445 C588.92566889 294.16380412 594.64580261 299.28096153 600.30078125 304.515625 C602.50697664 306.54621873 604.73367629 308.5374104 607 310.5 C616.55882552 318.80804617 625.66090101 327.52158714 634.58040619 336.50524139 C636.41253849 338.35041697 638.24802167 340.19220463 640.08428955 342.03326416 C643.97573058 345.93598885 647.86316647 349.84268726 651.75 353.75 C656.27540393 358.29915347 660.80251534 362.84658189 665.33386993 367.38980865 C667.12829956 369.190644 668.91965508 370.99449735 670.71087646 372.79852295 C675.78617034 377.89653725 680.86484923 382.94305665 686.35575867 387.59977722 C689.3515462 390.15096594 692.19610251 392.86793762 695.0625 395.5625 C696.36969628 396.78786219 697.67699086 398.0131195 698.984375 399.23828125 C699.64630859 399.85912598 700.30824219 400.4799707 700.99023438 401.11962891 C702.97282723 402.97457669 704.96175941 404.82244548 706.953125 406.66796875 C713.41641192 412.66367801 719.79946309 418.69202166 725.94921875 425.01171875 C727.86673476 426.87079618 729.82593176 428.45410497 732 430 C734.94163796 428.6118113 737.52895726 426.9942122 740.1875 425.125 C757.78501606 413.36470878 780.46112486 412.20485992 800.875 416.1875 C808.66305471 418.23343259 816.17222053 421.14658127 823 425.4375 C823.99 425.953125 824.98 426.46875 826 427 C834.47788712 423.87605834 841.42315271 415.82607398 847.5625 409.5 C852.27390037 404.67200219 857.02327779 400.00235162 862.14038086 395.60351562 C864.81731883 393.2952409 867.40374165 390.89871695 870 388.5 C873.2778141 385.47995128 876.56583268 382.47795863 879.9375 379.5625 C883.52958591 376.45035876 887.01551992 373.23127914 890.5 370 C894.5884066 366.20867887 898.71016026 362.47422183 902.92578125 358.82421875 C907.15964704 355.1006494 911.28773782 351.25831574 915.43554688 347.43945312 C917.95361742 345.12257673 920.47701997 342.81152713 923 340.5 C924.00132234 339.58205334 925.0026244 338.66408457 926.00390625 337.74609375 C927.99031882 335.92516169 929.97734387 334.10490144 931.96484375 332.28515625 C932.95577011 331.37764888 933.94665545 330.4700967 934.9375 329.5625 C935.42847168 329.11277832 935.91944336 328.66305664 936.42529297 328.19970703 C939.61109803 325.27929934 942.78786276 322.34930939 945.96044922 319.41455078 C953.8635431 312.10494239 961.82598267 304.86978662 969.94921875 297.8046875 C972.26088797 295.77041859 974.5353143 293.6977769 976.8125 291.625 C981.10257505 287.75283181 985.52418079 284.08424352 990.015625 280.44921875 C993.3876186 277.68188892 996.69652941 274.84839151 1000 272 C1005.92157094 266.90060158 1011.92562394 261.91691111 1018 257 C1018.78375 256.34644531 1019.5675 255.69289062 1020.375 255.01953125 C1058.532539 223.57721704 1104.07467139 210.67335601 1153.20605469 214.41845703 C1176.80428696 216.73233099 1199.21957633 224.93654485 1220 236 C1220.60585937 236.31694824 1221.21171875 236.63389648 1221.8359375 236.96044922 C1258.22945339 256.12068179 1282.60257051 289.68645855 1294.96484375 328.36328125 C1302.16849308 353.67119643 1297.33001673 380.26797359 1284.83789062 403.12646484 C1279.94500396 411.63067525 1274.42128648 419.57419544 1268 427 C1267.33871094 427.7940625 1266.67742187 428.588125 1265.99609375 429.40625 C1230.69741178 470.49053546 1169.8581616 491.83916299 1118 500 C1117.07380859 500.15098145 1116.14761719 500.30196289 1115.19335938 500.45751953 C1078.23831107 506.23252455 1040.39718644 503.2227207 1003.42828369 499.25640869 C998.33493955 498.71858944 993.23624432 498.23559562 988.13793945 497.74755859 C985.58274912 497.50270959 983.02788385 497.25443957 980.47338867 497.00244141 C973.9196818 496.35758375 967.36675375 495.78263198 960.80029297 495.28540039 C950.52507871 494.50245342 940.33129822 493.34337171 930.125 491.9375 C928.85124512 491.7629126 927.57749023 491.5883252 926.26513672 491.40844727 C917.26492698 490.13246349 917.26492698 490.13246349 915 489 C915 489.66 915 490.32 915 491 C915.82262329 491.16169678 915.82262329 491.16169678 916.66186523 491.32666016 C919.48711191 492.14027928 921.82175739 493.37655178 924.41015625 494.7734375 C925.47282715 495.34513672 926.53549805 495.91683594 927.63037109 496.50585938 C928.76297363 497.12267578 929.89557617 497.73949219 931.0625 498.375 C931.64412903 498.69090088 932.22575806 499.00680176 932.82501221 499.33227539 C936.89085532 501.54130862 940.94701423 503.76746884 945 506 C945.90959473 506.49918945 946.81918945 506.99837891 947.75634766 507.51269531 C965.84735319 517.49958525 982.70654999 529.08230088 998 543 C998.53592773 543.48629883 999.07185547 543.97259766 999.62402344 544.47363281 C1002.20532822 546.82126486 1004.77512572 549.18082405 1007.3359375 551.55078125 C1009.53090777 553.56873779 1011.7466621 555.54803445 1014 557.5 C1017.34501158 560.40086067 1020.61585743 563.37845208 1023.875 566.375 C1031.80309154 573.65678647 1039.73011346 580.86224556 1048.10546875 587.6328125 C1050.61372821 589.68410161 1053.08149388 591.77450171 1055.53759766 593.88769531 C1086.11195983 620.45639338 1086.11195983 620.45639338 1124.62890625 628.21777344 C1143.88356 626.44932707 1159.14727552 617.79539075 1174 606 C1176.06055763 604.41413969 1178.12312932 602.83089354 1180.1875 601.25 C1181.2815033 600.40657846 1182.37524608 599.56281889 1183.46875 598.71875 C1185.96360157 596.79528167 1188.46427879 594.87967601 1190.96875 592.96875 C1191.65694824 592.44361816 1192.34514648 591.91848633 1193.05419922 591.37744141 C1194.48530079 590.28569008 1195.91661858 589.19422215 1197.34814453 588.10302734 C1201.09362224 585.24237388 1204.82168255 582.36237833 1208.5234375 579.4453125 C1218.10396812 571.90007756 1227.80819431 564.69979259 1238 558 C1238.7223584 557.52353027 1239.4447168 557.04706055 1240.18896484 556.55615234 C1280.99148154 529.80401621 1325.65689505 510.39787351 1375.25097656 520.45654297 C1400.12090533 525.9069842 1425.07967925 536.70142103 1444 554 C1444.79792969 554.680625 1445.59585937 555.36125 1446.41796875 556.0625 C1482.34761579 587.13678934 1506.62508699 632.2896898 1510.79052734 679.67456055 C1511.17192495 685.72935862 1511.18595455 691.7851268 1511.18530273 697.84960938 C1511.1874763 700.10045679 1511.20566441 702.35080203 1511.22460938 704.6015625 C1511.25703979 712.19483873 1511.02163058 719.74328426 1510.30078125 727.3046875 C1510.24818649 728.00449738 1510.19559174 728.70430725 1510.1414032 729.42532349 C1509.72584814 733.15809965 1509.01061413 734.98696106 1506.61791992 737.92626953 C1504 740 1504 740 1500.8125 740.875 C1495.79052788 739.72241623 1493.54208941 737.25815425 1489.89453125 733.72265625 C1486.61768098 730.64038279 1483.17693385 727.8797025 1479.625 725.125 C1478.73252563 724.4292688 1478.73252563 724.4292688 1477.82202148 723.71948242 C1476.21901113 722.47406144 1474.60974408 721.23670515 1473 720 C1472.27296875 719.40960937 1471.5459375 718.81921875 1470.796875 718.2109375 C1467.79340353 716.1868589 1465.50932264 716.5159555 1462 717 C1457.53313406 720.26057327 1454.35075606 723.88956287 1451.125 728.375 C1443.01544879 739.18467531 1443.01544879 739.18467531 1438 742 C1434.25 742.25 1434.25 742.25 1431 741 C1423.89971662 733.49210775 1423.97940359 721.99328614 1422.67260742 712.17822266 C1420.78232595 698.08910914 1418.09037546 684.61419824 1414 671 C1413.73316406 670.10200684 1413.46632813 669.20401367 1413.19140625 668.27880859 C1406.84973927 647.27014029 1397.96426325 628.06041212 1384 611 C1383.49210937 610.34515625 1382.98421875 609.6903125 1382.4609375 609.015625 C1377.11622855 602.43347112 1369.63239629 595.81619815 1362 592 C1356.78843002 591.47117893 1353.04384223 592.97161481 1348.5 595.3125 C1347.80438965 595.66642822 1347.1087793 596.02035645 1346.39208984 596.38500977 C1335.88467391 601.94895259 1327.12422178 609.82726208 1318.4140625 617.828125 C1315.00726171 620.89314319 1311.45132367 623.75818841 1307.88671875 626.63671875 C1305.40951125 628.66474383 1302.98197209 630.73857889 1300.56420898 632.83666992 C1262.54514001 665.66943231 1218.39933002 689.96833068 1169 700 C1168.09032471 700.19360107 1167.18064941 700.38720215 1166.2434082 700.58666992 C1157.13092579 702.34078946 1148.06011863 702.44001406 1138.8125 702.4375 C1137.97706665 702.4385675 1137.1416333 702.43963501 1136.28088379 702.44073486 C1121.71669319 702.41396884 1108.0713504 700.95360577 1094 697 C1093.19304687 696.78069824 1092.38609375 696.56139648 1091.5546875 696.33544922 C1073.02554242 691.16479523 1055.43512216 682.44238619 1040 671 C1039.40638672 670.56042969 1038.81277344 670.12085938 1038.20117188 669.66796875 C1030.63821305 664.0059478 1023.54590913 657.92743522 1016.65234375 651.47265625 C1014.53118254 649.49519669 1012.38753045 647.57526807 1010.1875 645.6875 C1000.44637238 637.20911115 991.1456755 628.2375499 982 619.125 C981.30656494 618.43615723 980.61312988 617.74731445 979.89868164 617.03759766 C975.99360329 613.12074141 972.29611175 609.08881298 968.68359375 604.90185547 C966.08594896 601.96745105 963.30389706 599.23567572 960.5 596.5 C957.06370728 593.14731537 953.74748277 589.75706581 950.609375 586.12109375 C946.83241702 581.75398609 942.83402518 577.64188583 938.75 573.5625 C938.00274658 572.81605225 937.25549316 572.06960449 936.4855957 571.30053711 C931.71274868 566.58021252 926.87524964 562.16507892 921.5859375 558.02734375 C918.75368458 555.80689169 916.04201687 553.47033554 913.3125 551.125 C906.22036046 545.22245109 898.69731044 540.07694944 891 535 C890.17709473 534.4529541 889.35418945 533.9059082 888.50634766 533.34228516 C857.16296788 510.73781686 857.16296788 510.73781686 821 504 C817.0375456 505.43654898 813.30590438 507.33703559 809.5546875 509.24609375 C794.69692156 516.57701343 775.70274534 517.07774066 759.73828125 513.26953125 C754.0354717 511.33284044 748.61651086 508.74425406 743.27758789 505.96118164 C735.7363629 502.23282437 730.12305071 502.64272244 722.2265625 505.2421875 C691.39210101 519.22136852 662.33715997 537.51202815 637 560 C636.31462158 560.59852783 635.62924316 561.19705566 634.9230957 561.8137207 C627.75612287 568.14860895 620.99052268 574.85672211 614.23999023 581.62963867 C612.30890453 583.56610549 610.37250118 585.49713956 608.43554688 587.42773438 C602.88918351 592.97142509 597.38708323 598.49661973 592.30541992 604.47631836 C590.08982776 607.06234991 587.63466289 609.38722203 585.1875 611.75 C583.34911863 613.64090655 581.63796975 615.56675405 579.921875 617.56640625 C575.70818712 622.41394228 571.21761463 626.96846618 566.67675781 631.50854492 C565.26080053 632.92668284 563.85301711 634.35296665 562.4453125 635.77929688 C553.53371819 644.70950872 543.83845164 652.49057021 533.79101562 660.08984375 C532.93733398 660.74919922 532.93733398 660.74919922 532.06640625 661.421875 C531.57084229 661.79924805 531.07527832 662.17662109 530.56469727 662.56542969 C528.47454259 664.48175811 526.77143306 666.78570867 525 669 C556.68 669.495 556.68 669.495 589 670 C589 680.89 589 691.78 589 703 C578.44 703 567.88 703 557 703 C557 713.56 557 724.12 557 735 C534.44432372 736.02010596 512.00241571 735.94880772 489.4375 735.5625 C488.68849049 735.54968616 487.93948097 735.53687233 487.1677742 735.5236702 C477.77824732 735.36185244 468.38916385 735.18255927 459 735 C459 745.89 459 756.78 459 768 C448.44 768 437.88 768 427 768 C427 778.56 427 789.12 427 800 C416.44 800 405.88 800 395 800 C395 810.89 395 821.78 395 833 C427.01 833 459.02 833 492 833 C492 865.67 492 898.34 492 932 C481.11 932 470.22 932 459 932 C459 942.56 459 953.12 459 964 C448.44 964 437.88 964 427 964 C427 974.89 427 985.78 427 997 C416.44 997 405.88 997 395 997 C395 1005.91 395 1014.82 395 1024 C264.65 1024 134.3 1024 0 1024 C0 686.08 0 348.16 0 0 Z " fill="#FAFAFA" transform="translate(0,0)"/>
<path d="M0 0 C0.63260742 0.50644043 1.26521484 1.01288086 1.91699219 1.53466797 C9.98473881 7.99403435 17.91213161 14.58573845 25.68920898 21.39257812 C29.39958259 24.63525758 33.16130633 27.785192 37 30.875 C40.67589279 33.85046418 44.05689305 36.94055225 47.34375 40.3359375 C49.65972421 42.66283612 52.13953533 44.77681355 54.62322998 46.92156982 C63.61323814 54.78312315 72.16935827 63.03370123 80.58040619 71.50524139 C82.41253849 73.35041697 84.24802167 75.19220463 86.08428955 77.03326416 C89.97573058 80.93598885 93.86316647 84.84268726 97.75 88.75 C102.27540393 93.29915347 106.80251534 97.84658189 111.33386993 102.38980865 C113.12829956 104.190644 114.91965508 105.99449735 116.71087646 107.79852295 C121.78617034 112.89653725 126.86484923 117.94305665 132.35575867 122.59977722 C135.3515462 125.15096594 138.19610251 127.86793762 141.0625 130.5625 C142.36969628 131.78786219 143.67699086 133.0131195 144.984375 134.23828125 C145.64630859 134.85912598 146.30824219 135.4799707 146.99023438 136.11962891 C148.97282723 137.97457669 150.96175941 139.82244548 152.953125 141.66796875 C159.41641192 147.66367801 165.79946309 153.69202166 171.94921875 160.01171875 C173.86673476 161.87079618 175.82593176 163.45410497 178 165 C180.94163796 163.6118113 183.52895726 161.9942122 186.1875 160.125 C203.78501606 148.36470878 226.46112486 147.20485992 246.875 151.1875 C254.66305471 153.23343259 262.17222053 156.14658127 269 160.4375 C269.99 160.953125 270.98 161.46875 272 162 C280.47788712 158.87605834 287.42315271 150.82607398 293.5625 144.5 C298.27390037 139.67200219 303.02327779 135.00235162 308.14038086 130.60351562 C310.81731883 128.2952409 313.40374165 125.89871695 316 123.5 C319.2778141 120.47995128 322.56583268 117.47795863 325.9375 114.5625 C329.52958591 111.45035876 333.01551992 108.23127914 336.5 105 C340.5884066 101.20867887 344.71016026 97.47422183 348.92578125 93.82421875 C353.15964704 90.1006494 357.28773782 86.25831574 361.43554688 82.43945312 C363.95361742 80.12257673 366.47701997 77.81152713 369 75.5 C370.00132234 74.58205334 371.0026244 73.66408457 372.00390625 72.74609375 C373.99031882 70.92516169 375.97734387 69.10490144 377.96484375 67.28515625 C378.95577011 66.37764888 379.94665545 65.4700967 380.9375 64.5625 C381.67395752 63.88791748 381.67395752 63.88791748 382.42529297 63.19970703 C385.61109803 60.27929934 388.78786276 57.34930939 391.96044922 54.41455078 C399.8635431 47.10494239 407.82598267 39.86978662 415.94921875 32.8046875 C418.26088797 30.77041859 420.5353143 28.6977769 422.8125 26.625 C427.10257505 22.75283181 431.52418079 19.08424352 436.015625 15.44921875 C439.3876186 12.68188892 442.69652941 9.84839151 446 7 C451.92157094 1.90060158 457.92562394 -3.08308889 464 -8 C464.78375 -8.65355469 465.5675 -9.30710938 466.375 -9.98046875 C504.532539 -41.42278296 550.07467139 -54.32664399 599.20605469 -50.58154297 C622.80428696 -48.26766901 645.21957633 -40.06345515 666 -29 C666.60585937 -28.68305176 667.21171875 -28.36610352 667.8359375 -28.03955078 C704.22945339 -8.87931821 728.60257051 24.68645855 740.96484375 63.36328125 C748.16849308 88.67119643 743.33001673 115.26797359 730.83789062 138.12646484 C725.94500396 146.63067525 720.42128648 154.57419544 714 162 C713.33871094 162.7940625 712.67742187 163.588125 711.99609375 164.40625 C676.69741178 205.49053546 615.8581616 226.83916299 564 235 C563.07380859 235.15098145 562.14761719 235.30196289 561.19335938 235.45751953 C524.23831107 241.23252455 486.39718644 238.2227207 449.42828369 234.25640869 C444.33493955 233.71858944 439.23624432 233.23559562 434.13793945 232.74755859 C431.58274912 232.50270959 429.02788385 232.25443957 426.47338867 232.00244141 C419.9196818 231.35758375 413.36675375 230.78263198 406.80029297 230.28540039 C396.52507871 229.50245342 386.33129822 228.34337171 376.125 226.9375 C374.85124512 226.7629126 373.57749023 226.5883252 372.26513672 226.40844727 C363.26492698 225.13246349 363.26492698 225.13246349 361 224 C361 224.66 361 225.32 361 226 C361.82262329 226.16169678 361.82262329 226.16169678 362.66186523 226.32666016 C365.48711191 227.14027928 367.82175739 228.37655178 370.41015625 229.7734375 C371.47282715 230.34513672 372.53549805 230.91683594 373.63037109 231.50585938 C374.76297363 232.12267578 375.89557617 232.73949219 377.0625 233.375 C377.64412903 233.69090088 378.22575806 234.00680176 378.82501221 234.33227539 C382.89085532 236.54130862 386.94701423 238.76746884 391 241 C391.90959473 241.49918945 392.81918945 241.99837891 393.75634766 242.51269531 C411.84735319 252.49958525 428.70654999 264.08230088 444 278 C444.53592773 278.48629883 445.07185547 278.97259766 445.62402344 279.47363281 C448.20532822 281.82126486 450.77512572 284.18082405 453.3359375 286.55078125 C455.53090777 288.56873779 457.7466621 290.54803445 460 292.5 C463.34501158 295.40086067 466.61585743 298.37845208 469.875 301.375 C477.80309154 308.65678647 485.73011346 315.86224556 494.10546875 322.6328125 C496.61372821 324.68410161 499.08149388 326.77450171 501.53759766 328.88769531 C532.11195983 355.45639338 532.11195983 355.45639338 570.62890625 363.21777344 C589.88356 361.44932707 605.14727552 352.79539075 620 341 C622.06055763 339.41413969 624.12312932 337.83089354 626.1875 336.25 C627.2815033 335.40657846 628.37524608 334.56281889 629.46875 333.71875 C631.96360157 331.79528167 634.46427879 329.87967601 636.96875 327.96875 C637.65694824 327.44361816 638.34514648 326.91848633 639.05419922 326.37744141 C640.48530079 325.28569008 641.91661858 324.19422215 643.34814453 323.10302734 C647.09362224 320.24237388 650.82168255 317.36237833 654.5234375 314.4453125 C664.10396812 306.90007756 673.80819431 299.69979259 684 293 C684.7223584 292.52353027 685.4447168 292.04706055 686.18896484 291.55615234 C726.99148154 264.80401621 771.65689505 245.39787351 821.25097656 255.45654297 C846.12090533 260.9069842 871.07967925 271.70142103 890 289 C890.79792969 289.680625 891.59585937 290.36125 892.41796875 291.0625 C928.34761579 322.13678934 952.62508699 367.2896898 956.79052734 414.67456055 C957.17192495 420.72935862 957.18595455 426.7851268 957.18530273 432.84960938 C957.1874763 435.10045679 957.20566441 437.35080203 957.22460938 439.6015625 C957.25703979 447.19483873 957.02163058 454.74328426 956.30078125 462.3046875 C956.24818649 463.00449738 956.19559174 463.70430725 956.1414032 464.42532349 C955.72584814 468.15809965 955.01061413 469.98696106 952.61791992 472.92626953 C950 475 950 475 946.8125 475.875 C941.79052788 474.72241623 939.54208941 472.25815425 935.89453125 468.72265625 C932.61768098 465.64038279 929.17693385 462.8797025 925.625 460.125 C924.73252563 459.4292688 924.73252563 459.4292688 923.82202148 458.71948242 C922.21901113 457.47406144 920.60974408 456.23670515 919 455 C917.90945313 454.11441406 917.90945313 454.11441406 916.796875 453.2109375 C913.79340353 451.1868589 911.50932264 451.5159555 908 452 C903.53313406 455.26057327 900.35075606 458.88956287 897.125 463.375 C889.01544879 474.18467531 889.01544879 474.18467531 884 477 C880.25 477.25 880.25 477.25 877 476 C869.89971662 468.49210775 869.97940359 456.99328614 868.67260742 447.17822266 C866.78232595 433.08910914 864.09037546 419.61419824 860 406 C859.59974609 404.65301025 859.59974609 404.65301025 859.19140625 403.27880859 C852.84973927 382.27014029 843.96426325 363.06041212 830 346 C829.49210937 345.34515625 828.98421875 344.6903125 828.4609375 344.015625 C823.11622855 337.43347112 815.63239629 330.81619815 808 327 C802.78843002 326.47117893 799.04384223 327.97161481 794.5 330.3125 C793.80438965 330.66642822 793.1087793 331.02035645 792.39208984 331.38500977 C781.88467391 336.94895259 773.12422178 344.82726208 764.4140625 352.828125 C761.00726171 355.89314319 757.45132367 358.75818841 753.88671875 361.63671875 C751.40951125 363.66474383 748.98197209 365.73857889 746.56420898 367.83666992 C708.54514001 400.66943231 664.39933002 424.96833068 615 435 C614.09032471 435.19360107 613.18064941 435.38720215 612.2434082 435.58666992 C603.13092579 437.34078946 594.06011863 437.44001406 584.8125 437.4375 C583.97706665 437.4385675 583.1416333 437.43963501 582.28088379 437.44073486 C567.71669319 437.41396884 554.0713504 435.95360577 540 432 C539.19304687 431.78069824 538.38609375 431.56139648 537.5546875 431.33544922 C519.02554242 426.16479523 501.43512216 417.44238619 486 406 C485.10958008 405.34064453 485.10958008 405.34064453 484.20117188 404.66796875 C476.63821305 399.0059478 469.54590913 392.92743522 462.65234375 386.47265625 C460.53118254 384.49519669 458.38753045 382.57526807 456.1875 380.6875 C446.44637238 372.20911115 437.1456755 363.2375499 428 354.125 C427.30656494 353.43615723 426.61312988 352.74731445 425.89868164 352.03759766 C421.99360329 348.12074141 418.29611175 344.08881298 414.68359375 339.90185547 C412.08594896 336.96745105 409.30389706 334.23567572 406.5 331.5 C403.06370728 328.14731537 399.74748277 324.75706581 396.609375 321.12109375 C392.83241702 316.75398609 388.83402518 312.64188583 384.75 308.5625 C384.00274658 307.81605225 383.25549316 307.06960449 382.4855957 306.30053711 C377.71274868 301.58021252 372.87524964 297.16507892 367.5859375 293.02734375 C364.75368458 290.80689169 362.04201687 288.47033554 359.3125 286.125 C352.22036046 280.22245109 344.69731044 275.07694944 337 270 C336.17709473 269.4529541 335.35418945 268.9059082 334.50634766 268.34228516 C303.16296788 245.73781686 303.16296788 245.73781686 267 239 C263.0375456 240.43654898 259.30590438 242.33703559 255.5546875 244.24609375 C240.69692156 251.57701343 221.70274534 252.07774066 205.73828125 248.26953125 C200.0354717 246.33284044 194.61651086 243.74425406 189.27758789 240.96118164 C181.7363629 237.23282437 176.12305071 237.64272244 168.2265625 240.2421875 C137.39210101 254.22136852 108.33715997 272.51202815 83 295 C82.31462158 295.59852783 81.62924316 296.19705566 80.9230957 296.8137207 C73.75612287 303.14860895 66.99052268 309.85672211 60.23999023 316.62963867 C58.30890453 318.56610549 56.37250118 320.49713956 54.43554688 322.42773438 C48.88918351 327.97142509 43.38708323 333.49661973 38.30541992 339.47631836 C36.08982776 342.06234991 33.63466289 344.38722203 31.1875 346.75 C29.34911863 348.64090655 27.63796975 350.56675405 25.921875 352.56640625 C21.70818712 357.41394228 17.21761463 361.96846618 12.67675781 366.50854492 C11.26080053 367.92668284 9.85301711 369.35296665 8.4453125 370.77929688 C2.27478742 376.96271303 -4.16648229 382.56596654 -11 388 C-12.2937966 389.07269694 -13.58455262 390.14908063 -14.87109375 391.23046875 C-47.15824786 418.12155301 -83.01354478 437.5696641 -125 443 C-125.64404785 443.09571289 -126.2880957 443.19142578 -126.95166016 443.29003906 C-146.66653517 445.94277604 -169.67520617 445.80207536 -189 441 C-190.21985596 440.70198486 -190.21985596 440.70198486 -191.46435547 440.39794922 C-227.91722627 431.23841929 -260.79613387 414.07026329 -291 392 C-291.56976563 391.58476074 -292.13953125 391.16952148 -292.7265625 390.74169922 C-310.73921085 377.56396765 -327.35448745 362.73983694 -343.6484375 347.52734375 C-359.45745605 332.85163121 -359.45745605 332.85163121 -379 325 C-390.00008878 326.18106216 -401.87741173 339.7202692 -408.31640625 347.61376953 C-432.09456638 377.98415838 -443.95947975 419.72991832 -447.87402344 457.64208984 C-448.52396123 463.57452201 -449.25725813 469.61585092 -452 475 C-455 477 -455 477 -458.1875 477.1875 C-464.76082851 475.14006981 -467.97880308 469.61118849 -472.07421875 464.3203125 C-478.21175647 456.0459802 -478.21175647 456.0459802 -487.5 452.5 C-494.66960129 453.52422876 -499.10004558 458.81992031 -504.26171875 463.54296875 C-517.98103237 475.85316599 -517.98103237 475.85316599 -523.4375 476.25 C-527 476 -527 476 -528.8125 474.875 C-541.76505674 454.42359463 -534.95765665 409.19249345 -530 387 C-522.86534477 356.73404151 -507.1728257 328.84384632 -486.00390625 306.16015625 C-484.13083421 304.14103571 -482.38063159 302.05836937 -480.625 299.9375 C-476.28959202 294.97564546 -471.17265685 291.04933605 -466 287 C-464.99839844 286.18273437 -463.99679687 285.36546875 -462.96484375 284.5234375 C-438.16034701 264.49575789 -407.40107182 253.35806243 -375.54638672 253.60888672 C-373.1332104 253.62494536 -370.7217194 253.60894501 -368.30859375 253.58984375 C-351.50807175 253.56670885 -335.82032132 256.34814138 -320 262 C-318.22109375 262.62841797 -318.22109375 262.62841797 -316.40625 263.26953125 C-281.7450115 276.34284621 -251.05155281 298.86284033 -222.3984375 321.89453125 C-221.16162819 322.88823228 -219.92464725 323.88171973 -218.6875 324.875 C-217.76420898 325.6162915 -217.76420898 325.6162915 -216.82226562 326.37255859 C-209.94650613 331.87352098 -202.94827921 337.21023904 -195.92919922 342.52636719 C-194.20023552 343.84704864 -192.48937572 345.18671327 -190.78515625 346.5390625 C-169.55322927 363.12561485 -145.70677451 370.49530214 -118.79541016 367.77734375 C-93.10778989 364.26069677 -73.55296532 348.77124883 -54.58984375 332.36767578 C-52.4016638 330.48527651 -50.18985431 328.63159143 -47.97924805 326.77563477 C-42.74904078 322.3804833 -37.62806959 317.89107781 -32.57421875 313.29296875 C-29.70457867 310.73685536 -26.7632119 308.27364383 -23.8125 305.8125 C-18.84223382 301.65902064 -14.0818392 297.32399561 -9.375 292.875 C-4.25837265 288.0398067 0.96482775 283.45811091 6.47265625 279.06640625 C8.99292185 277.00578723 11.36779036 274.84291932 13.75 272.625 C30.5911517 257.37014202 50.69202301 246.04369198 70.58544922 235.3125 C74.49653332 233.18651536 78.37391417 231.00146686 82.25 228.8125 C82.93602295 228.42553955 83.6220459 228.0385791 84.32885742 227.63989258 C85.88639576 226.76079741 87.44328148 225.88054609 89 225 C88.20456787 225.07516846 87.40913574 225.15033691 86.58959961 225.2277832 C82.70587654 225.59273566 78.82180935 225.9538513 74.9375 226.3125 C73.83086502 226.41478409 73.83086502 226.41478409 72.70187378 226.51913452 C64.19405793 227.30174855 55.68605368 228.0450573 47.1640625 228.65625 C46.06104546 228.73587479 46.06104546 228.73587479 44.93574524 228.81710815 C38.51701208 229.2801471 38.51701208 229.2801471 35.6882019 229.48150635 C24.85456286 230.26253709 14.06908142 231.28978239 3.27734375 232.5234375 C-37.33267858 237.13950394 -77.53291705 240.44548045 -118 233 C-119.16450684 232.80164551 -120.32901367 232.60329102 -121.52880859 232.39892578 C-147.86913683 227.87881758 -173.99861346 219.85471423 -198 208 C-198.67192383 207.67435059 -199.34384766 207.34870117 -200.03613281 207.01318359 C-204.07754255 205.05362535 -208.08778589 203.04102497 -212.07958984 200.98242188 C-213.96755391 200.01659841 -215.86697151 199.07730026 -217.76953125 198.140625 C-242.74137397 185.62534802 -263.32181226 165.56779439 -278 142 C-278.97453125 140.46859375 -278.97453125 140.46859375 -279.96875 138.90625 C-289.15897303 123.91167558 -294.60461576 107.79360485 -294.375 90.125 C-294.36412354 88.97950684 -294.35324707 87.83401367 -294.34204102 86.65380859 C-294.18580987 78.35881911 -293.52588695 70.94489973 -291 63 C-290.76893555 62.26152832 -290.53787109 61.52305664 -290.29980469 60.76220703 C-277.75124475 21.23029713 -253.75761354 -10.73141622 -216.671875 -30.34375 C-200.58392321 -38.48022514 -183.38319897 -44.03483896 -165.8125 -47.9375 C-164.91756836 -48.13698242 -164.02263672 -48.33646484 -163.10058594 -48.54199219 C-101.77515026 -61.25110538 -46.96262509 -37.86441625 0 0 Z " fill="#024B79" transform="translate(554,265)"/>
<path d="M0 0 C0.70125 0.61359375 1.4025 1.2271875 2.125 1.859375 C3.37066989 2.94933615 4.61417969 4.04177114 5.85546875 5.13671875 C8.09250135 7.08037003 10.35719592 8.98937819 12.6262207 10.89550781 C18.37492923 15.72618745 23.99085392 20.66010295 29.5234375 25.73828125 C31.63747579 27.66892505 33.77373948 29.56313132 35.9375 31.4375 C39.83791777 34.82743364 43.64177322 38.3197085 47.44384766 41.81884766 C50.54671081 44.67309329 53.66857872 47.50337233 56.8125 50.3125 C61.76046819 54.75053266 66.60952423 59.29074189 71.45874023 63.8359375 C75.05956471 67.20602776 78.68953505 70.53461763 82.375 73.8125 C86.35790847 77.36678421 90.11900265 81.09534824 93.86328125 84.8984375 C95.78239426 86.78597461 97.74978544 88.523274 99.8125 90.25 C104.05362467 93.8731564 107.73903056 97.95357596 111.43676758 102.11816406 C114.04827306 105.02446688 116.73282553 107.68864586 119.70629883 110.2265625 C123.91150699 113.87883776 127.88354537 117.72217242 131.82421875 121.65625 C132.53351028 122.36221313 133.24280182 123.06817627 133.97358704 123.79553223 C135.4596869 125.27660744 136.94446975 126.75900522 138.42797852 128.24267578 C140.6868145 130.49931516 142.95354748 132.74781676 145.22070312 134.99609375 C146.67236449 136.44482218 148.1235527 137.89402492 149.57421875 139.34375 C150.2451506 140.00749634 150.91608246 140.67124268 151.60734558 141.35510254 C155.54902626 145.31589648 159.10532557 149.20120779 162 154 C161.81083679 156.14196777 161.81083679 156.14196777 161 158 C138.21932326 165.59355891 103.6514834 144.79348307 84.02954102 135.01837158 C74.42071017 130.18570161 64.87884221 125.22170326 55.33837891 120.25585938 C51.22373572 118.11462742 47.10318569 115.98501196 42.98046875 113.859375 C23.29615982 103.70583397 23.29615982 103.70583397 14.71801758 99.11987305 C-33.08339373 73.63806402 -82.9592673 53.87053334 -137 47 C-138.11592529 46.84422485 -138.11592529 46.84422485 -139.25439453 46.68530273 C-160.2699731 43.96215044 -182.39117846 45.45605424 -203 50 C-203.78858398 50.17128418 -204.57716797 50.34256836 -205.38964844 50.51904297 C-223.71051571 54.69967051 -241.36478992 64.12459409 -255.66015625 76.2578125 C-258 78 -258 78 -261 78 C-266.37757224 61.86728328 -259.67893903 43.51022444 -252.70141602 28.99633789 C-246.82844881 17.32747654 -239.00854357 7.43589383 -230 -2 C-229.47535156 -2.5878125 -228.95070313 -3.175625 -228.41015625 -3.78125 C-203.04390357 -31.14840302 -162.41273616 -43.54823135 -126.30224609 -44.92529297 C-78.02573787 -46.49184774 -36.34976455 -32.10895869 0 0 Z " fill="#F9FAFA" transform="translate(543,276)"/>
<path d="M0 0 C20.13345711 18.46904377 40.24480389 45.08508904 42.09521484 73.52099609 C42.20255225 79.0095157 42.20255225 79.0095157 41.90380859 81.57958984 C39.90380859 83.57958984 39.90380859 83.57958984 37.40771484 84.01708984 C32.27471123 83.37617969 28.35864174 81.00782003 23.84130859 78.57958984 C1.6534436 67.10164017 -21.3631174 59.94289223 -46.09619141 56.57958984 C-46.78430908 56.48387695 -47.47242676 56.38816406 -48.18139648 56.28955078 C-82.91377642 51.91023364 -119.14222783 58.77271649 -152.09619141 69.57958984 C-152.88880371 69.83434082 -153.68141602 70.0890918 -154.49804688 70.3515625 C-185.13818257 80.26655873 -214.65275766 95.02840098 -242.76416016 110.64208984 C-251.20973392 115.32590017 -259.80939092 119.71904771 -268.38134766 124.16552734 C-271.74407052 125.9170463 -275.0948497 127.69053776 -278.44506836 129.46582031 C-286.44228168 133.7019473 -294.49435567 137.80755865 -302.60546875 141.82128906 C-307.61615224 144.30952116 -312.56894046 146.88370877 -317.49560547 149.53417969 C-338.7449921 160.94142832 -360.70344029 168.2981979 -385.09619141 167.57958984 C-377.99068815 156.51943999 -368.14760637 147.53557856 -358.90869141 138.26708984 C-358.19933441 137.5537146 -358.19933441 137.5537146 -357.47564697 136.82592773 C-351.85816021 131.18437124 -346.14837195 125.75054393 -340.09619141 120.57958984 C-338.42566679 119.08388757 -336.75838309 117.58454718 -335.09619141 116.07958984 C-331.47942795 112.81568136 -327.83229532 109.59168035 -324.15869141 106.39208984 C-320.91829296 103.54446697 -317.72377775 100.64622699 -314.52197266 97.75537109 C-312.45916353 95.90515421 -310.37906771 94.08014176 -308.28369141 92.26708984 C-304.11505609 88.63742959 -300.06857709 84.8800108 -296.01489258 81.12329102 C-292.73152362 78.08246785 -289.4296853 75.06561857 -286.09619141 72.07958984 C-282.36340771 68.73088678 -278.65734889 65.35449259 -274.97119141 61.95458984 C-274.43252441 61.45789795 -273.89385742 60.96120605 -273.33886719 60.44946289 C-270.23940157 57.58374075 -267.1597651 54.69850741 -264.09619141 51.79443359 C-257.42059958 45.47444039 -250.74231828 39.35502322 -243.54931641 33.62646484 C-240.21669572 30.84574313 -237.22288685 27.78888888 -234.19384766 24.68505859 C-231.69145538 22.17334642 -229.05612757 19.87361011 -226.36181641 17.57177734 C-224.0928341 15.57663773 -221.90596046 13.50696133 -219.7175293 11.42431641 C-194.49213243 -12.41465223 -163.01361481 -30.52560028 -128.09619141 -34.42041016 C-127.19513672 -34.53126953 -126.29408203 -34.64212891 -125.36572266 -34.75634766 C-81.4258342 -39.34245731 -33.6166536 -30.01731449 0 0 Z " fill="#F9FAFA" transform="translate(1236.09619140625,266.42041015625)"/>
<path d="M0 0 C1.23137695 0.00644531 2.46275391 0.01289063 3.73144531 0.01953125 C13.49971487 0.21515404 21.31958148 1.49437349 30.25 5.5 C30.92981934 5.8000293 31.60963867 6.10005859 32.31005859 6.40917969 C40.63806571 10.13881903 48.53334874 14.22312948 55.25 20.5 C56.0028125 21.19996094 56.755625 21.89992188 57.53125 22.62109375 C61.36419977 26.51477688 64.65354172 30.13220237 64.8125 35.78515625 C62.69575112 46.00140952 56.07161582 55.82748495 49.25 63.5 C48.52683594 64.33015625 47.80367187 65.1603125 47.05859375 66.015625 C44.82231122 68.54326752 42.54797492 71.02843705 40.25 73.5 C39.69828125 74.10585938 39.1465625 74.71171875 38.578125 75.3359375 C15.66570838 99.49605997 -18.38284962 112.6074221 -49.3125 122.75 C-50.08865662 123.00666443 -50.86481323 123.26332886 -51.66448975 123.527771 C-68.3047176 129.00450746 -84.85194874 132.69151951 -102.25 134.6875 C-103.62509662 134.85271343 -105.00009707 135.01872923 -106.375 135.18554688 C-110.16463036 135.64211548 -113.95689541 136.0732027 -117.75 136.5 C-118.65959473 136.60820068 -119.56918945 136.71640137 -120.50634766 136.82788086 C-127.04887499 137.56203232 -133.54485561 137.68356451 -140.125 137.6875 C-141.13304687 137.69974609 -142.14109375 137.71199219 -143.1796875 137.72460938 C-168.52838039 137.7698749 -193.66069939 134.30208181 -218.73205566 130.96020508 C-226.2053669 129.96530942 -233.68062942 128.98518263 -241.15625 128.0078125 C-242.37369085 127.8482929 -242.37369085 127.8482929 -243.61572647 127.68555069 C-270.56503101 124.16258903 -297.61643139 120.99638277 -324.72265625 118.97265625 C-325.91938965 118.88322754 -327.11612305 118.79379883 -328.34912109 118.70166016 C-330.69936433 118.52864592 -333.0499478 118.36017915 -335.40087891 118.19677734 C-336.45839355 118.12023926 -337.5159082 118.04370117 -338.60546875 117.96484375 C-339.55059326 117.899021 -340.49571777 117.83319824 -341.46948242 117.76538086 C-343.75 117.5 -343.75 117.5 -345.75 116.5 C-346 113.1875 -346 113.1875 -345.75 109.5 C-340.89443567 104.10492852 -331.53826332 104.96636931 -324.83282471 104.59381104 C-320.3986958 104.39409657 -315.96171316 104.35169972 -311.52392578 104.29336548 C-249.5257609 103.47431614 -187.2263731 85.61779416 -130.75 60.5 C-128.79178986 59.64424929 -126.83345915 58.78877442 -124.875 57.93359375 C-103.99423056 48.72618412 -84.69858017 37.26304547 -65.80004883 24.50708008 C-55.6591686 17.66275025 -45.43229594 11.43413207 -34.125 6.6875 C-33.46902832 6.40946533 -32.81305664 6.13143066 -32.13720703 5.8449707 C-21.56960675 1.58342308 -11.37206013 -0.06253539 0 0 Z " fill="#F9FAFA" transform="translate(1208.75,348.5)"/>
<path d="M0 0 C43.41826964 29.24493879 92.93258145 48.05234734 142.99682617 62.3984375 C145.39562171 63.08621084 147.79247664 63.78079185 150.18725586 64.48242188 C164.45293699 68.66032657 178.75832162 72.27784027 193.30493164 75.31152344 C193.9926062 75.45704651 194.68028076 75.60256958 195.38879395 75.75250244 C213.63673375 79.58370393 231.82646606 80.79056988 250.42993164 81.49902344 C286.92294986 82.94218234 286.92294986 82.94218234 292.61743164 86.43652344 C293.67993164 88.49902344 293.67993164 88.49902344 293.61743164 90.43652344 C287.27786386 96.77609122 270.20171891 95.37528365 261.45553589 96.12472534 C256.50842674 96.5499143 251.56293853 96.99314124 246.61743164 97.43652344 C245.64760849 97.5233287 244.67778534 97.61013397 243.67857361 97.6995697 C233.25592278 98.63877327 222.86089663 99.76580057 212.4675293 100.98730469 C208.69710909 101.42722689 204.92568947 101.85728134 201.15386963 102.2849884 C184.30148615 104.19741176 167.4638045 106.11126198 150.67993164 108.56152344 C75.03928374 119.35805292 -11.33859261 112.65856468 -75.01953125 65.71459961 C-115.0704413 35.28202055 -115.0704413 35.28202055 -117.82006836 15.24902344 C-117.21193901 9.9496105 -114.86807929 7.3342991 -111.38256836 3.43652344 C-110.8140918 2.78683594 -110.24561523 2.13714844 -109.65991211 1.46777344 C-75.94681961 -34.60738287 -36.33932198 -24.4887949 0 0 Z " fill="#F9F9FA" transform="translate(403.382568359375,371.5634765625)"/>
<path d="M0 0 C4.10475719 3.25486622 8.07188915 6.64162698 12.01464844 10.08959961 C24.90058088 21.29757039 38.75044003 31.53924789 53.38964844 40.33959961 C53.99131836 40.70746582 54.59298828 41.07533203 55.21289062 41.4543457 C70.60167731 50.80464574 87.26715094 56.94341858 104.38964844 62.33959961 C90.9221929 78.36511933 61.33067351 84.75960763 41.37402344 86.62084961 C28.34632642 87.07796179 16.09584642 82.60931846 4.38964844 77.33959961 C3.7530127 77.05487793 3.11637695 76.77015625 2.46044922 76.47680664 C-13.68896126 69.13099735 -28.09731077 58.97545566 -41.8125 47.80200195 C-43.76068231 46.21731808 -45.72007393 44.64718255 -47.68066406 43.07788086 C-55.19723052 37.04163749 -62.50212179 30.8554769 -69.61035156 24.33959961 C-70.93987659 23.16859487 -72.2730811 22.00175132 -73.61035156 20.83959961 C-76.53893756 18.29096988 -79.42394862 15.69971436 -82.29785156 13.08959961 C-84.06631414 11.50361876 -85.83728734 9.92043433 -87.61035156 8.33959961 C-88.56554687 7.48237305 -89.52074219 6.62514648 -90.50488281 5.74194336 C-117.44775828 -18.01469671 -149.99757756 -33.62197073 -186.11035156 -35.22290039 C-187.02816406 -35.26608398 -187.94597656 -35.30926758 -188.89160156 -35.35375977 C-191.13107217 -35.45873495 -193.37063249 -35.56089287 -195.61035156 -35.66040039 C-184.234475 -47.67013575 -163.2766675 -51.18324787 -147.61035156 -53.66040039 C-145.96292969 -53.93883789 -145.96292969 -53.93883789 -144.28222656 -54.22290039 C-91.01256067 -60.56992441 -40.32742623 -31.63654825 0 0 Z " fill="#F9F9F9" transform="translate(308.6103515625,590.660400390625)"/>
<path d="M0 0 C0.73847168 0.21430664 1.47694336 0.42861328 2.23779297 0.64941406 C12.7313054 3.81058181 22.69081133 8.19483179 32 14 C32.33 14.66 32.66 15.32 33 16 C32.31188232 16.00410889 31.62376465 16.00821777 30.91479492 16.01245117 C-2.967533 16.36483415 -32.42617555 26.77890305 -59 48 C-59.86109375 48.66902344 -60.7221875 49.33804688 -61.609375 50.02734375 C-67.64733817 54.76208195 -73.3285766 59.83646527 -79 65 C-90.32177608 75.09657385 -101.97641419 84.75417817 -114 94 C-114.76795898 94.59393555 -115.53591797 95.18787109 -116.32714844 95.79980469 C-142.63136948 116.0904474 -171.40596144 134.61776914 -206 132 C-222.88473744 129.64850031 -243.97861171 119.94980379 -257 109 C-257.671875 106.85546875 -257.671875 106.85546875 -258 105 C-256.73027344 104.78085937 -255.46054688 104.56171875 -254.15234375 104.3359375 C-229.42952316 99.87072047 -210.5140768 89.10686546 -191.00927734 73.59619141 C-189.08402604 72.06675118 -187.14811142 70.55224621 -185.20703125 69.04296875 C-179.9771272 64.97017921 -174.79578847 60.84990024 -169.6875 56.625 C-152.4274516 42.45706013 -134.43923336 29.97810299 -115 19 C-114.2682959 18.58218262 -113.5365918 18.16436523 -112.78271484 17.73388672 C-78.45711979 -1.71503884 -38.78517462 -11.2976545 0 0 Z " fill="#F9F9F9" transform="translate(1385,540)"/>
<path d="M0 0 C2 2 2 2 2.375 5.4375 C2 9 2 9 0.34765625 10.59765625 C-2.35754047 12.21357243 -4.92638272 13.06564118 -7.9375 14 C-51.70955557 28.90546625 -95.55254378 66.02464117 -125.1953125 100.9765625 C-128.3481749 104.51159004 -131.76861123 107.78582037 -135.15625 111.09375 C-137.21438836 113.14686413 -139.11913176 115.28330359 -141.00390625 117.49609375 C-145.93159393 123.18395347 -151.29641592 128.44555468 -156.62426758 133.75463867 C-158.43360933 135.55862085 -160.23754319 137.36788665 -162.04101562 139.17773438 C-167.85796566 144.99829008 -173.70132381 150.69590019 -180 156 C-181.48113281 157.30324219 -181.48113281 157.30324219 -182.9921875 158.6328125 C-191.91339792 166.34518682 -201.30196153 173.295664 -211 180 C-212.05445313 180.73089844 -213.10890625 181.46179688 -214.1953125 182.21484375 C-230.26637194 192.69317451 -248.56343911 199.9384497 -267 205 C-268.10472656 205.31453125 -269.20945312 205.6290625 -270.34765625 205.953125 C-284.86610828 209.85531764 -298.95836391 210.26645316 -313.875 210.125 C-315.7382764 210.11494227 -317.6015581 210.10582139 -319.46484375 210.09765625 C-323.97669629 210.07588214 -328.48828764 210.04150903 -333 210 C-331.58252226 207.16504452 -329.91405354 206.97943471 -326.98828125 205.8203125 C-325.93133057 205.39242432 -324.87437988 204.96453613 -323.78540039 204.52368164 C-322.63934326 204.0621167 -321.49328613 203.60055176 -320.3125 203.125 C-301.51756272 195.35236652 -284.25307125 185.50910725 -267.22314453 174.44384766 C-265.07980795 173.05183222 -262.9298305 171.6707816 -260.77734375 170.29296875 C-257.26907748 168.04324563 -253.77475621 165.7729821 -250.28662109 163.4921875 C-248.68504485 162.44704187 -247.08098894 161.40569078 -245.47509766 160.3671875 C-227.4795148 148.71809784 -210.7654282 135.98392003 -195.69921875 120.671875 C-193.28426992 118.29578741 -190.73247959 116.09513713 -188.16796875 113.8828125 C-185.75157049 111.7842468 -183.37470976 109.645603 -181 107.5 C-178.06321535 104.84886006 -175.11397458 102.21709829 -172.125 99.625 C-169.25931945 97.13486227 -166.45937904 94.58256694 -163.67651367 92.00024414 C-158.87846975 87.5540316 -154.01617746 83.30136247 -148.859375 79.26953125 C-146.63336504 77.50271187 -144.44379245 75.71112477 -142.265625 73.88671875 C-108.24241717 45.4136249 -71.12657892 23.74078748 -29.625 8.0625 C-27.84873345 7.38535523 -26.07269066 6.70762323 -24.296875 6.02929688 C-7.54132746 -0.35911083 -7.54132746 -0.35911083 0 0 Z " fill="#F8F9F9" transform="translate(716,481)"/>
<path d="M0 0 C6.48026191 0.12859336 11.85944762 1.92330569 17.859375 4.2421875 C18.94065674 4.64711426 20.02193848 5.05204102 21.13598633 5.46923828 C68.83142961 23.58037667 109.72413406 48.93032819 148.22167969 82.18017578 C151.65498936 85.14187699 155.13717946 88.02616959 158.671875 90.8671875 C164.45646181 95.57085882 169.89578778 100.60443692 175.33105469 105.70214844 C177.22326102 107.47381884 179.12269463 109.23749297 181.0234375 111 C182.34387894 112.22642369 183.66419387 113.4529836 184.984375 114.6796875 C185.59055664 115.24196045 186.19673828 115.8042334 186.82128906 116.38354492 C189.85348657 119.20990895 192.82850071 122.07472665 195.7421875 125.0234375 C198.41050251 127.70775496 201.15490292 130.18258732 204.109375 132.5546875 C205.05167969 133.31265625 205.99398438 134.070625 206.96484375 134.8515625 C207.46935059 135.25439453 207.97385742 135.65722656 208.49365234 136.07226562 C210.22326162 137.458462 211.94203058 138.85741289 213.66015625 140.2578125 C221.33799447 146.49215266 229.16659655 152.41259189 237.27294922 158.07666016 C239.17700835 159.41471607 241.06792786 160.76982887 242.95703125 162.12890625 C259.73672176 174.16257944 276.91729532 185.57772759 295.109375 195.3671875 C297.27616195 196.55446802 299.44284205 197.74194355 301.609375 198.9296875 C303.10875895 199.74332379 304.6084881 200.55632699 306.109375 201.3671875 C306.109375 201.6971875 306.109375 202.0271875 306.109375 202.3671875 C266.55299016 208.89797318 228.04484669 193.51476908 196.25146484 171.0546875 C192.43362744 168.28672835 188.74320797 165.37242956 185.109375 162.3671875 C184.52285156 161.88217773 183.93632813 161.39716797 183.33203125 160.89746094 C176.92555491 155.56437413 170.70003569 150.14664311 164.89453125 144.15625 C163.05788501 142.31558484 161.14581554 140.62163654 159.171875 138.9296875 C154.6049445 134.98923454 150.09700818 130.89942798 146.109375 126.3671875 C146.109375 125.7071875 146.109375 125.0471875 146.109375 124.3671875 C145.449375 124.3671875 144.789375 124.3671875 144.109375 124.3671875 C142.64648438 122.90063477 142.64648438 122.90063477 140.953125 120.87109375 C137.28969182 116.5639051 133.48345101 112.42239097 129.609375 108.3046875 C128.98417969 107.63630859 128.35898437 106.96792969 127.71484375 106.27929688 C124.63943692 103.00332004 121.53246381 99.77149008 118.34375 96.60546875 C116.07489034 94.35222344 113.91012746 92.07358331 111.859375 89.6171875 C104.90665264 81.57077848 97.20589246 74.24712979 89.109375 67.3671875 C88.09409136 66.47765785 87.07985892 65.58692764 86.06640625 64.6953125 C59.21093934 41.18318813 29.3118589 21.83263406 -4.10668945 9.11645508 C-5.890625 8.3671875 -5.890625 8.3671875 -6.890625 7.3671875 C-7.078125 4.9296875 -7.078125 4.9296875 -6.890625 2.3671875 C-4.38269272 -0.14074478 -3.47630152 0.04585653 0 0 Z " fill="#F9FAFA" transform="translate(847.890625,481.6328125)"/>
<path d="M0 0 C-2.70141526 2.72168855 -5.42375448 5.41241357 -8.19921875 8.05859375 C-20.25474802 19.66328821 -29.17236455 32.20556881 -37 47 C-37.93392578 48.71509766 -37.93392578 48.71509766 -38.88671875 50.46484375 C-52.10929873 75.87393121 -58.1752035 105.184247 -64 133 C-67.54273232 131.3310209 -69.96105486 129.3282598 -72.8125 126.625 C-80.06460852 119.96278233 -80.06460852 119.96278233 -89.375 117.375 C-99.42502062 117.91916355 -106.56505849 127.20233736 -113 134 C-113.99 133.34 -114.98 132.68 -116 132 C-116.37231445 129.59594727 -116.37231445 129.59594727 -116.36328125 126.56640625 C-116.36440918 125.45233398 -116.36553711 124.33826172 -116.36669922 123.19042969 C-116.34881348 121.99321289 -116.33092773 120.79599609 -116.3125 119.5625 C-116.29977051 118.33563477 -116.28704102 117.10876953 -116.27392578 115.84472656 C-115.63651379 75.58768144 -103.05847421 37.09801014 -74.9375 7.5625 C-54.79033698 -11.59987297 -24.17430165 -13.2744555 0 0 Z " fill="#F9F9FA" transform="translate(153,579)"/>
<path d="M0 0 C1.08603516 -0.020625 2.17207031 -0.04125 3.29101562 -0.0625 C18.56446131 -0.13588593 28.07040384 5.28890855 38.75 15.75 C59.8571104 37.03493174 71.45181035 64.33542945 77.8125 93.25 C77.99184082 94.05904785 78.17118164 94.8680957 78.35595703 95.70166016 C80.5175399 105.89136611 81.0752496 115.90400638 81.125 126.3125 C81.13063965 127.46210205 81.1362793 128.6117041 81.14208984 129.79614258 C81.06918213 137.99331787 81.06918213 137.99331787 78.8125 140.25 C78.02601074 139.67499756 78.02601074 139.67499756 77.22363281 139.08837891 C74.83882369 137.34749989 72.45070819 135.6112127 70.0625 133.875 C69.2375 133.27171875 68.4125 132.6684375 67.5625 132.046875 C66.76328125 131.46679688 65.9640625 130.88671875 65.140625 130.2890625 C64.04089355 129.48782959 64.04089355 129.48782959 62.91894531 128.67041016 C58.39344672 125.61879323 55.36694735 124.45650752 49.8125 125.25 C42.90980271 128.68568443 37.14369012 133.45336855 31.58984375 138.74609375 C29.8125 140.25 29.8125 140.25 27.8125 140.25 C27.63187012 139.31019287 27.45124023 138.37038574 27.26513672 137.40209961 C18.19569089 89.36023379 18.19569089 89.36023379 -2.1875 45.25 C-2.83460937 44.19554687 -3.48171875 43.14109375 -4.1484375 42.0546875 C-12.42607198 29.1145487 -22.19318188 18.76536525 -34.1875 9.25 C-31.51085021 5.90907216 -28.28176207 4.99284295 -24.3125 3.625 C-22.49105469 2.98691406 -22.49105469 2.98691406 -20.6328125 2.3359375 C-13.68898521 0.14729352 -7.2357126 0.0337526 0 0 Z " fill="#F9FAFA" transform="translate(1413.1875,571.75)"/>
<path d="M0 0 C65.35622615 -2.47215706 126.00922461 33.46078317 182.72543335 61.86120605 C186.10792529 63.55469846 189.49146332 65.24609621 192.875 66.9375 C194.16927702 67.58462305 195.46354769 68.23175878 196.7578125 68.87890625 C197.43102539 69.2155127 198.10423828 69.55211914 198.79785156 69.89892578 C213.53190104 77.26595052 228.26595052 84.63297526 243 92 C243 92.33 243 92.66 243 93 C230.04536623 93.45842085 217.75684176 92.24174067 205 90 C204.13181641 89.84966309 203.26363281 89.69932617 202.36914062 89.54443359 C153.78750125 80.87428557 103.46887335 64.47895698 60 41 C59.17032715 40.55495117 58.3406543 40.10990234 57.48583984 39.65136719 C46.0909869 33.49540971 35.0438833 26.90989756 24.25 19.75 C23.28707031 19.11320312 22.32414062 18.47640625 21.33203125 17.8203125 C4.16637804 6.24956707 4.16637804 6.24956707 0 0 Z " fill="#F8F9FA" transform="translate(394,341)"/>
<path d="M0 0 C0.83378174 -0.01313232 1.66756348 -0.02626465 2.52661133 -0.03979492 C3.31962646 -0.04084229 4.1126416 -0.04188965 4.9296875 -0.04296875 C5.64108887 -0.04707764 6.35249023 -0.05118652 7.08544922 -0.05541992 C9.44483544 0.22559388 11.07067735 1.02238332 13.125 2.1875 C0.3825197 11.68022022 -12.93241393 19.59182841 -26.875 27.1875 C-27.8861084 27.74115234 -28.8972168 28.29480469 -29.93896484 28.86523438 C-35.97836324 32.17044462 -42.03207644 35.44784131 -48.10009766 38.70019531 C-49.85869992 39.6427789 -51.61631197 40.58721425 -53.37255859 41.53417969 C-58.84194716 44.48123892 -64.34167948 47.36231423 -69.875 50.1875 C-70.79796875 50.6604248 -71.7209375 51.13334961 -72.671875 51.62060547 C-97.047634 64.00597376 -122.60887843 72.42642141 -148.74609375 80.25048828 C-150.6515113 80.82110256 -152.55555221 81.39637599 -154.45703125 81.97998047 C-176.98731757 88.89355427 -201.24597522 93.48185931 -224.875 93.1875 C-220.24138886 89.08065729 -214.99351319 86.38853279 -209.5625 83.5 C-208.51489502 82.93821045 -207.46729004 82.3764209 -206.38793945 81.79760742 C-203.49544668 80.24859118 -200.60033877 78.70459753 -197.70410156 77.16259766 C-195.86272262 76.1809549 -194.02290199 75.19645416 -192.18359375 74.2109375 C-54.69989188 0.54817724 -54.69989188 0.54817724 0 0 Z " fill="#F7F9F9" transform="translate(1147.875,340.8125)"/>
<path d="M0 0 C6.25689389 4.29412747 10.63933741 9.4880514 13 16.75 C13.84785918 24.91310927 13.89594221 32.87710551 9 39.75 C3.17796669 46.51980618 -3.63338749 49.94979229 -12 52.75 C-12.70382812 52.99621094 -13.40765625 53.24242187 -14.1328125 53.49609375 C-29.34968472 57.82245938 -46.55061355 54.72770593 -60.23046875 47.484375 C-65.73717416 44.03588811 -71.37448812 39.24655339 -73.59765625 32.92578125 C-74.97773221 25.46265202 -75.41282646 17.11801009 -71.30078125 10.4765625 C-70.87152344 9.90679687 -70.44226563 9.33703125 -70 8.75 C-69.34064453 7.86441406 -69.34064453 7.86441406 -68.66796875 6.9609375 C-52.40023777 -11.73665709 -20.05730892 -11.73365997 0 0 Z " fill="#F9FAFA" transform="translate(811,441.25)"/>
<path d="M0 0 C10.89 0 21.78 0 33 0 C33 10.23 33 20.46 33 31 C35.31 30.34 37.62 29.68 40 29 C40 29.66 40 30.32 40 31 C38.45983306 31.4839655 36.91777806 31.96192387 35.375 32.4375 C34.51648437 32.70433594 33.65796875 32.97117187 32.7734375 33.24609375 C26.75688235 34.88157987 21.06599098 35.15529849 14.875 35.125 C14.07707031 35.12886719 13.27914063 35.13273438 12.45703125 35.13671875 C11.68488281 35.13542969 10.91273437 35.13414062 10.1171875 35.1328125 C9.42222168 35.13168457 8.72725586 35.13055664 8.01123047 35.12939453 C5.80666689 34.98756172 4.06151116 34.81867593 2 34 C-0.55467385 30.6401252 -0.22994565 27.13358673 -0.1953125 23.046875 C-0.19031738 21.83870117 -0.18532227 20.63052734 -0.18017578 19.38574219 C-0.16196777 17.85594727 -0.14375977 16.32615234 -0.125 14.75 C-0.08375 9.8825 -0.0425 5.015 0 0 Z " fill="#FEFEFE" transform="translate(1173,637)"/>
<path d="M0 0 C4.00440317 2.19803736 7.45606719 5.12734137 11 8 C11.80179688 8.64710938 12.60359375 9.29421875 13.4296875 9.9609375 C23.72053182 18.68500968 34.66886392 32.00659176 39 45 C38 46 38 46 34.94897461 46.11352539 C33.60008731 46.11327443 32.25119355 46.10771815 30.90234375 46.09765625 C28.95702759 46.09390991 28.95702759 46.09390991 26.97241211 46.09008789 C25.31089111 46.08098389 23.64937012 46.07187988 21.9375 46.0625 C16.678125 46.041875 11.41875 46.02125 6 46 C6 35.44 6 24.88 6 14 C-4.56 14 -15.12 14 -26 14 C-26 13.01 -26 12.02 -26 11 C-23.99847843 9.50713579 -22.0831995 8.25028712 -19.9375 7 C-18.24947266 5.9790625 -18.24947266 5.9790625 -16.52734375 4.9375 C-6.21406723 -0.87214979 -6.21406723 -0.87214979 0 0 Z " fill="#F4F5F5" transform="translate(1362,591)"/>
<path d="M0 0 C10.89 0 21.78 0 33 0 C33 10.89 33 21.78 33 33 C22.11 33 11.22 33 0 33 C0 22.11 0 11.22 0 0 Z " fill="#FEFEFE" transform="translate(330,637)"/>
<path d="M0 0 C10.89 0 21.78 0 33 0 C33 10.89 33 21.78 33 33 C22.11 33 11.22 33 0 33 C0 22.11 0 11.22 0 0 Z " fill="#FEFEFE" transform="translate(459,442)"/>
<path d="M0 0 C0 11.22 0 22.44 0 34 C-10.56 34 -21.12 34 -32 34 C-32 23.77 -32 13.54 -32 3 C-36.29 2.67 -40.58 2.34 -45 2 C-45 1.67 -45 1.34 -45 1 C-44.16339844 0.97494385 -43.32679687 0.9498877 -42.46484375 0.92407227 C-39.32623274 0.82827164 -36.18775119 0.72908345 -33.04931641 0.62768555 C-31.03686399 0.56367259 -29.0242912 0.5034803 -27.01171875 0.44335938 C-19.26179301 0.22913923 -19.26179301 0.22913923 -11.5625 -0.59765625 C-8 -1 -8 -1 0 0 Z " fill="#F4F5F5" transform="translate(1173,701)"/>
<path d="M0 0 C10.23 0.33 20.46 0.66 31 1 C31 11.89 31 22.78 31 34 C20.44 34 9.88 34 -1 34 C-1.020625 28.76125 -1.04125 23.5225 -1.0625 18.125 C-1.071604 16.47258301 -1.08070801 14.82016602 -1.09008789 13.11767578 C-1.09258545 11.8232959 -1.09508301 10.52891602 -1.09765625 9.1953125 C-1.10277222 8.51460693 -1.10788818 7.83390137 -1.11315918 7.13256836 C-1.1140718 2.2281436 -1.1140718 2.2281436 0 0 Z " fill="#FEFEFE" transform="translate(947,343)"/>
<path d="M0 0 C10.56 0 21.12 0 32 0 C32 10.56 32 21.12 32 32 C21.44 32 10.88 32 0 32 C0 21.44 0 10.88 0 0 Z " fill="#FEFEFE" transform="translate(914,768)"/>
<path d="M0 0 C10.56 0 21.12 0 32 0 C32 10.56 32 21.12 32 32 C21.44 32 10.88 32 0 32 C0 21.44 0 10.88 0 0 Z " fill="#F6F6F7" transform="translate(914,18)"/>
<path d="M0 0 C0.94230469 -0.00386719 1.88460937 -0.00773438 2.85546875 -0.01171875 C8.69126029 -0.00364712 14.33711596 0.37625935 20.125 1.125 C19.135 1.455 18.145 1.785 17.125 2.125 C16.795 2.785 16.465 3.445 16.125 4.125 C7.45833333 4.125 -1.20833333 4.125 -9.875 4.125 C-9.875 11.715 -9.875 19.305 -9.875 27.125 C-14.61606062 28.31026516 -16.06538589 27.56688726 -20.5625 25.875 C-35.3648348 20.6414664 -50.27360737 19.59288044 -65.875 19.125 C-54.49912344 7.11526464 -33.54131594 3.60215252 -17.875 1.125 C-16.24691406 0.84269531 -16.24691406 0.84269531 -14.5859375 0.5546875 C-9.71024457 -0.00986642 -4.90369479 -0.01996077 0 0 Z " fill="#F3F5F6" transform="translate(178.875,535.875)"/>
<path d="M0 0 C0 10.56 0 21.12 0 32 C-10.23 32 -20.46 32 -31 32 C-31 20 -31 20 -30 17 C-29.34 17 -28.68 17 -28 17 C-28 16.01 -28 15.02 -28 14 C-24.04194918 11.85364525 -20.08351181 9.70800441 -16.125 7.5625 C-14.99707031 6.95083984 -13.86914062 6.33917969 -12.70703125 5.70898438 C-11.63066406 5.12568359 -10.55429687 4.54238281 -9.4453125 3.94140625 C-8.45031738 3.40201416 -7.45532227 2.86262207 -6.43017578 2.30688477 C-2.14048197 0 -2.14048197 0 0 0 Z " fill="#F5F5F6" transform="translate(718,507)"/>
<path d="M0 0 C0.495 0.99 0.495 0.99 1 2 C0.31711914 2.00410889 -0.36576172 2.00821777 -1.06933594 2.01245117 C-14.9723943 2.15800245 -27.77011314 3.03868306 -41.1484375 6.94140625 C-45 8 -45 8 -49 8 C-49 0.74 -49 -6.52 -49 -14 C-56.92 -14.33 -64.84 -14.66 -73 -15 C-73 -15.66 -73 -16.32 -73 -17 C-47.29062267 -19.09674972 -22.01423147 -14.02548738 0 0 Z " fill="#F1F4F5" transform="translate(1417,554)"/>
<path d="M0 0 C10.89 0 21.78 0 33 0 C32 9 32 9 30 12 C28.13989258 13.02734375 28.13989258 13.02734375 25.89453125 13.9375 C25.07533203 14.27523437 24.25613281 14.61296875 23.41210938 14.9609375 C22.55423828 15.30382812 21.69636719 15.64671875 20.8125 16 C19.13146974 16.68740054 17.45047952 17.37489899 15.76953125 18.0625 C14.95822754 18.38992187 14.14692383 18.71734375 13.31103516 19.0546875 C11.23826612 19.90253894 9.1865287 20.78595562 7.13671875 21.6875 C4 23 4 23 0 24 C0 16.08 0 8.16 0 0 Z " fill="#F5F5F5" transform="translate(330,214)"/>
<path d="M0 0 C0.66 0.33 1.32 0.66 2 1 C-1.60575001 5.58913637 -5.47384007 9.32167983 -10 13 C-8.68 13.66 -7.36 14.32 -6 15 C-5.67 21.93 -5.34 28.86 -5 36 C-15.56739524 37.93601134 -25.24799437 39.51290486 -36 39 C-26.53470026 24.25473714 -12.39357837 12.28139586 0 0 Z " fill="#F3F5F5" transform="translate(887,395)"/>
<path d="M0 0 C1 3 1 3 0 15 C-10.56 15 -21.12 15 -32 15 C-32 11.04 -32 7.08 -32 3 C-32.33 2.34 -32.66 1.68 -33 1 C-22.01480208 -0.27364614 -11.04098375 -0.10085216 0 0 Z " fill="#F2F4F4" transform="translate(1141,231)"/>
<path d="M0 0 C11.35220126 4.5408805 11.35220126 4.5408805 15.375 7 C16.56222656 7.7115625 16.56222656 7.7115625 17.7734375 8.4375 C21.40970828 10.98926897 24.13023133 13.97137105 26.625 17.625 C28.00869369 19.64325386 29.25734982 21.25734982 31 23 C20.77 23 10.54 23 0 23 C0 15.41 0 7.82 0 0 Z " fill="#F4F5F5" transform="translate(1238,354)"/>
<path d="M0 0 C1.34888732 0.00015905 2.69778075 0.00584927 4.04663086 0.01586914 C5.10991859 0.01799156 5.10991859 0.01799156 6.19468689 0.02015686 C8.46699173 0.02577096 10.73919936 0.03832576 13.01147461 0.05102539 C14.54858257 0.05603858 16.08569206 0.0606018 17.62280273 0.06469727 C21.39823103 0.07574497 25.17358632 0.09301898 28.94897461 0.11352539 C28.94897461 4.40352539 28.94897461 8.69352539 28.94897461 13.11352539 C20.43172261 14.28690404 12.37637369 13.85902948 3.82397461 13.17602539 C2.47247147 13.07432202 1.12090891 12.9734051 -0.23071289 12.87329102 C-3.50481643 12.62773325 -6.77810465 12.37429936 -10.05102539 12.11352539 C-10.05102539 11.78352539 -10.05102539 11.45352539 -10.05102539 11.11352539 C-8.07102539 10.78352539 -6.09102539 10.45352539 -4.05102539 10.11352539 C-4.06262695 9.47543945 -4.07422852 8.83735352 -4.08618164 8.17993164 C-4.09520508 7.35364258 -4.10422852 6.52735352 -4.11352539 5.67602539 C-4.12512695 4.85231445 -4.13672852 4.02860352 -4.14868164 3.17993164 C-3.99009357 -0.17579189 -3.42376401 0.1273946 0 0 Z " fill="#F3F5F5" transform="translate(885.051025390625,454.886474609375)"/>
<path d="M0 0 C4.45827926 -0.0578304 8.9164628 -0.09353855 13.375 -0.125 C15.28152344 -0.15013672 15.28152344 -0.15013672 17.2265625 -0.17578125 C18.43828125 -0.18222656 19.65 -0.18867188 20.8984375 -0.1953125 C22.01911621 -0.20578613 23.13979492 -0.21625977 24.29443359 -0.22705078 C27 0 27 0 29 2 C31.475 2.495 31.475 2.495 34 3 C33.67 9.6 33.34 16.2 33 23 C32.01 23.495 32.01 23.495 31 24 C4.56768559 6.85152838 4.56768559 6.85152838 0 0 Z " fill="#F4F5F6" transform="translate(394,341)"/>
<path d="M0 0 C0.66 0.33 1.32 0.66 2 1 C0.02 1.99 0.02 1.99 -2 3 C-1.34 2.01 -0.68 1.02 0 0 Z M-4 3 C-3.01 3.33 -2.02 3.66 -1 4 C-1.33 10.6 -1.66 17.2 -2 24 C-12.23 24 -22.46 24 -33 24 C-33.33 22.68 -33.66 21.36 -34 20 C-33.410979 19.69819824 -32.82195801 19.39639648 -32.21508789 19.08544922 C-29.49465942 17.68752898 -26.77859449 16.28132122 -24.0625 14.875 C-23.13630859 14.400625 -22.21011719 13.92625 -21.25585938 13.4375 C-15.83680886 10.62339657 -10.79510004 7.6294182 -5.87280273 4.00830078 C-5.25477783 3.67556152 -4.63675293 3.34282227 -4 3 Z " fill="#F4F5F5" transform="translate(1240,451)"/>
<path d="M0 0 C10.56 0 21.12 0 32 0 C32 3.63 32 7.26 32 11 C29.39048764 12.30475618 27.47298715 12.11301572 24.5546875 12.09765625 C22.94013672 12.09282227 22.94013672 12.09282227 21.29296875 12.08789062 C20.16503906 12.07951172 19.03710938 12.07113281 17.875 12.0625 C16.73933594 12.05798828 15.60367188 12.05347656 14.43359375 12.04882812 C11.62234362 12.03701615 8.8111977 12.02054507 6 12 C6 11.67 6 11.34 6 11 C3.03 10.505 3.03 10.505 0 10 C0 6.7 0 3.4 0 0 Z " fill="#EFF2F3" transform="translate(168,507)"/>
<path d="M0 0 C13.86 0 27.72 0 42 0 C42 4.29 42 8.58 42 13 C37.94775057 14.01306236 37.26746158 14.0362163 33.61328125 12.70703125 C32.76467529 12.40804932 31.91606934 12.10906738 31.04174805 11.80102539 C30.14109619 11.47481201 29.24044434 11.14859863 28.3125 10.8125 C18.98022236 7.55209904 9.66593832 5.03960166 0 3 C0 2.01 0 1.02 0 0 Z " fill="#F1F4F5" transform="translate(1164,214)"/>
<path d="M0 0 C10.56 0 21.12 0 32 0 C32 3.63 32 7.26 32 11 C28.87110801 11.782223 26.8599909 12.11433318 23.75 12.0625 C21.89375 12.0315625 21.89375 12.0315625 20 12 C20 11.67 20 11.34 20 11 C13.31184516 10.37577221 6.71884955 9.87079135 0 10 C0 6.7 0 3.4 0 0 Z " fill="#F4F5F5" transform="translate(1336,507)"/>
<path d="M0 0 C1.3921875 1.2065625 1.3921875 1.2065625 2.8125 2.4375 C6.95071802 5.98694716 11.1733811 9.42977494 15.3984375 12.875 C18.28232015 15.23060385 21.14577335 17.60862091 24 20 C23.67 20.66 23.34 21.32 23 22 C14.75 22 6.5 22 -2 22 C-2 15.07 -2 8.14 -2 1 C-1.34 0.67 -0.68 0.34 0 0 Z " fill="#F3F4F4" transform="translate(1013,648)"/>
<path d="M0 0 C9.57 0 19.14 0 29 0 C29 5.94 29 11.88 29 18 C23.37909549 16.39402728 19.7160219 14.85374019 15.0625 11.6875 C13.84282585 10.87703513 12.62277555 10.06713602 11.40234375 9.2578125 C10.82081543 8.86883789 10.23928711 8.47986328 9.64013672 8.07910156 C7.50651838 6.67532171 5.31925141 5.36888141 3.125 4.0625 C2.09375 3.381875 1.0625 2.70125 0 2 C0 1.34 0 0.68 0 0 Z " fill="#F3F5F5" transform="translate(949,507)"/>
<path d="M0 0 C4.96423066 0.239775 7.67140328 3.01524495 11.0625 6.3125 C11.8369043 7.04243164 11.8369043 7.04243164 12.62695312 7.78710938 C14.09697675 9.17848205 15.54894112 10.58886021 17 12 C17.78246094 12.69480469 18.56492187 13.38960937 19.37109375 14.10546875 C21 16 21 16 21 20 C13.74 20 6.48 20 -1 20 C-1.0309375 15.3284375 -1.0309375 15.3284375 -1.0625 10.5625 C-1.071604 9.57967041 -1.08070801 8.59684082 -1.09008789 7.58422852 C-1.09258545 6.81522217 -1.09508301 6.04621582 -1.09765625 5.25390625 C-1.10551147 4.06776733 -1.10551147 4.06776733 -1.11352539 2.85766602 C-1 1 -1 1 0 0 Z " fill="#F4F5F5" transform="translate(979,552)"/>
<path d="M0 0 C0 0.66 0 1.32 0 2 C-1.52539062 3.34106445 -1.52539062 3.34106445 -3.65625 4.86328125 C-4.82027344 5.69956055 -4.82027344 5.69956055 -6.0078125 6.55273438 C-6.83023437 7.13345703 -7.65265625 7.71417969 -8.5 8.3125 C-9.29148437 8.88162109 -10.08296875 9.45074219 -10.8984375 10.03710938 C-13.24972983 11.71577791 -15.61794297 13.36532332 -18 15 C-18.75023437 15.51739746 -19.50046875 16.03479492 -20.2734375 16.56787109 C-20.97726562 17.03402832 -21.68109375 17.50018555 -22.40625 17.98046875 C-23.02822266 18.39578857 -23.65019531 18.8111084 -24.29101562 19.23901367 C-26 20 -26 20 -29 19 C-28.505 10.09 -28.505 10.09 -28 1 C-23.70835089 0.83287041 -19.41668224 0.6662746 -15.125 0.5 C-13.90167969 0.45230469 -12.67835937 0.40460937 -11.41796875 0.35546875 C-9.66806641 0.28779297 -9.66806641 0.28779297 -7.8828125 0.21875 C-6.80402832 0.17685547 -5.72524414 0.13496094 -4.61376953 0.09179688 C-3.07648977 0.03780685 -1.53822755 0 0 0 Z " fill="#FBFCFD" transform="translate(1266,636)"/>
<path d="M0 0 C0 3.63 0 7.26 0 11 C-10.56 11 -21.12 11 -32 11 C-32 9.35 -32 7.7 -32 6 C-32.33 5.34 -32.66 4.68 -33 4 C-32.41621582 3.91959473 -31.83243164 3.83918945 -31.23095703 3.75634766 C-28.52853241 3.38232995 -25.82677435 3.00368535 -23.125 2.625 C-22.2071875 2.49867188 -21.289375 2.37234375 -20.34375 2.2421875 C-14.83368335 1.46612177 -9.4193511 0.51434504 -3.99169922 -0.71728516 C-2 -1 -2 -1 0 0 Z " fill="#F1F4F4" transform="translate(1141,496)"/>
<path d="M0 0 C0 2.64 0 5.28 0 8 C-16.335 8.495 -16.335 8.495 -33 9 C-33 2 -33 2 -32 1 C-21.18274435 -1.032586 -10.92006165 -1.07458053 0 0 Z " fill="#F1F3F4" transform="translate(557,499)"/>
<path d="M0 0 C2.27687068 2.81515041 3.72779652 5.4273884 5.0078125 8.80859375 C5.35457031 9.72060547 5.70132812 10.63261719 6.05859375 11.57226562 C6.41050781 12.51779297 6.76242187 13.46332031 7.125 14.4375 C7.48464844 15.37916016 7.84429688 16.32082031 8.21484375 17.29101562 C11.57599626 26.21002892 11.57599626 26.21002892 12 30 C11.34 30.99 10.68 31.98 10 33 C10 32.34 10 31.68 10 31 C6.37 31 2.74 31 -1 31 C-1.02465622 26.74585377 -1.04283899 22.49174502 -1.05493164 18.23754883 C-1.05997101 16.78929927 -1.06680253 15.34105483 -1.07543945 13.89282227 C-1.08752247 11.81525412 -1.09323211 9.73775303 -1.09765625 7.66015625 C-1.10289307 6.40855713 -1.10812988 5.15695801 -1.11352539 3.86743164 C-1 1 -1 1 0 0 Z " fill="#F1F3F4" transform="translate(1402,639)"/>
<path d="M0 0 C-2.28150533 5.34245731 -5.37303484 8.86048916 -9.4375 12.875 C-10.01048828 13.46796875 -10.58347656 14.0609375 -11.17382812 14.671875 C-11.73392578 15.23132813 -12.29402344 15.79078125 -12.87109375 16.3671875 C-13.37568115 16.87362793 -13.88026855 17.38006836 -14.40014648 17.90185547 C-16 19 -16 19 -20 19 C-20 12.73 -20 6.46 -20 0 C-17.07125 -0.185625 -14.1425 -0.37125 -11.125 -0.5625 C-9.74272217 -0.65446655 -9.74272217 -0.65446655 -8.33251953 -0.74829102 C-7.24366455 -0.81294556 -7.24366455 -0.81294556 -6.1328125 -0.87890625 C-5.01737061 -0.94960327 -5.01737061 -0.94960327 -3.87939453 -1.02172852 C-2 -1 -2 -1 0 0 Z " fill="#F2F4F5" transform="translate(1258,410)"/>
<path d="M0 0 C7 6 7 6 9 10 C9.969375 10.309375 10.93875 10.61875 11.9375 10.9375 C15.70769306 12.24552616 16.29004019 13.49458239 18 17 C18.66 17.99 19.32 18.98 20 20 C13.4 20 6.8 20 0 20 C0 13.4 0 6.8 0 0 Z " fill="#F5F5F5" transform="translate(978,617)"/>
<path d="M0 0 C8.25 0 16.5 0 25 0 C25 0.99 25 1.98 25 3 C21.94080952 4.32031054 18.87711716 5.6298406 15.8125 6.9375 C14.94818359 7.31068359 14.08386719 7.68386719 13.19335938 8.06835938 C12.35224609 8.42607422 11.51113281 8.78378906 10.64453125 9.15234375 C9.48981323 9.6472229 9.48981323 9.6472229 8.31176758 10.15209961 C5.87494864 11.04586581 3.56962876 11.63582891 1 12 C0.67 11.67 0.34 11.34 0 11 C0 7.37 0 3.74 0 0 Z " fill="#F2F4F5" transform="translate(459,670)"/>
<path d="M0 0 C0 0.99 0 1.98 0 3 C-1.7578125 4.6484375 -1.7578125 4.6484375 -4.125 6.375 C-6.94372003 8.46359632 -9.68458622 10.55108652 -12.3125 12.875 C-15 15 -15 15 -19 16 C-19 11.05 -19 6.1 -19 1 C-4.66964286 -0.07142857 -4.66964286 -0.07142857 0 0 Z " fill="#F2F4F4" transform="translate(317,246)"/>
<path d="M0 0 C2.97 0 5.94 0 9 0 C9 8.25 9 16.5 9 25 C6 24 6 24 5.00097656 22.00634766 C4.71706055 21.15089355 4.43314453 20.29543945 4.140625 19.4140625 C3.82996094 18.48335937 3.51929688 17.55265625 3.19921875 16.59375 C2.88597656 15.6140625 2.57273437 14.634375 2.25 13.625 C1.75693359 12.16707031 1.75693359 12.16707031 1.25390625 10.6796875 C-1.13119011 3.39357034 -1.13119011 3.39357034 0 0 Z " fill="#F2F4F4" transform="translate(1424,637)"/>
<path d="M0 0 C5.09746294 -0.18927839 9.29488015 0.3879313 14.1875 1.8125 C15.37730469 2.14894531 16.56710937 2.48539062 17.79296875 2.83203125 C20.72925577 3.90139766 22.65808799 4.97189257 25 7 C22.44276771 8.27861615 20.63262898 8.11336609 17.7734375 8.09765625 C16.7421875 8.09443359 15.7109375 8.09121094 14.6484375 8.08789062 C13.02808594 8.07532227 13.02808594 8.07532227 11.375 8.0625 C9.74304688 8.05573242 9.74304688 8.05573242 8.078125 8.04882812 C5.38536211 8.03701776 2.69270812 8.02054778 0 8 C0 5.36 0 2.72 0 0 Z " fill="#F1F4F4" transform="translate(784,434)"/>
<path d="M0 0 C1.48828125 1.11328125 1.48828125 1.11328125 3 3 C3.29296875 5.91796875 3.29296875 5.91796875 3.1875 9.1875 C3.16042969 10.27417969 3.13335938 11.36085938 3.10546875 12.48046875 C3.07066406 13.31191406 3.03585937 14.14335937 3 15 C1.86820313 15.06058594 0.73640625 15.12117188 -0.4296875 15.18359375 C-1.91147145 15.26799917 -3.3932416 15.35264717 -4.875 15.4375 C-5.99455078 15.49647461 -5.99455078 15.49647461 -7.13671875 15.55664062 C-11.19986864 15.71573624 -11.19986864 15.71573624 -15 17 C-13.4688137 13.19366119 -11.14816717 11.14615217 -8.0625 8.5 C-4.97515736 5.84461251 -2.31421009 3.36056911 0 0 Z " fill="#F3F5F5" transform="translate(1267,427)"/>
<path d="M0 0 C1.24523438 0.01804687 2.49046875 0.03609375 3.7734375 0.0546875 C5.18496094 0.08949219 5.18496094 0.08949219 6.625 0.125 C3.57886858 3.36105808 0.34406438 5.91525446 -3.3125 8.4375 C-4.33214844 9.15550781 -5.35179687 9.87351562 -6.40234375 10.61328125 C-9.375 12.125 -9.375 12.125 -12.25390625 11.85546875 C-12.95386719 11.61441406 -13.65382813 11.37335938 -14.375 11.125 C-14.045 8.155 -13.715 5.185 -13.375 2.125 C-8.75130977 0.31820413 -4.94971347 -0.09339082 0 0 Z " fill="#F9FBFB" transform="translate(1154.375,341.875)"/>
<path d="M0 0 C0 3.63 0 7.26 0 11 C-1.32 11.33 -2.64 11.66 -4 12 C-6.796875 10.12890625 -6.796875 10.12890625 -9.75 7.5625 C-11.22726562 6.29599609 -11.22726562 6.29599609 -12.734375 5.00390625 C-13.48203125 4.34261719 -14.2296875 3.68132813 -15 3 C-12.58603772 -1.82792455 -4.53163904 -0.0533134 0 0 Z " fill="#F5F5F6" transform="translate(1043,637)"/>
<path d="M0 0 C0.99 0 1.98 0 3 0 C3.69951063 2.413762 4.38483919 4.83010234 5.0625 7.25 C5.26166016 7.93191406 5.46082031 8.61382812 5.66601562 9.31640625 C7.38835688 15.54100799 7.38835688 15.54100799 6 19 C5.67 19.99 5.34 20.98 5 22 C4.01 22.33 3.02 22.66 2 23 C1.34 22.67 0.68 22.34 0 22 C0 14.74 0 7.48 0 0 Z " fill="#ECF1F1" transform="translate(1271,322)"/>
<path d="M0 0 C2.31243792 -0.02685412 4.6249627 -0.04632841 6.9375 -0.0625 C8.22527344 -0.07410156 9.51304687 -0.08570313 10.83984375 -0.09765625 C14 0 14 0 15 1 C15.07226502 2.85287502 15.0838122 4.70833878 15.0625 6.5625 C15.05347656 7.57441406 15.04445313 8.58632813 15.03515625 9.62890625 C15.02355469 10.41136719 15.01195312 11.19382812 15 12 C14.01 11.01 13.02 10.02 12 9 C11.01 9.33 10.02 9.66 9 10 C5.96811304 8.21653709 5.13474948 7.40424844 4 4 C2.70644173 2.62804426 1.37701298 1.28817344 0 0 Z " fill="#F3F4F5" transform="translate(315,572)"/>
<path d="M0 0 C-0.33 1.98 -0.66 3.96 -1 6 C-7.27 6 -13.54 6 -20 6 C-20.33 5.01 -20.66 4.02 -21 3 C-18.62863429 2.2970379 -16.25432265 1.61253255 -13.875 0.9375 C-13.20984375 0.73833984 -12.5446875 0.53917969 -11.859375 0.33398438 C-7.54172062 -0.87241906 -4.35224278 -1.0778919 0 0 Z " fill="#F3F4F4" transform="translate(1012,436)"/>
<path d="M0 0 C0.33 0 0.66 0 1 0 C1 4.95 1 9.9 1 15 C-2.21451269 16.60725635 -5.43612536 16.05748185 -9 16 C-7.50829734 11.0276578 -5.39542583 6.58154261 -3 2 C-2.34 2 -1.68 2 -1 2 C-0.67 1.34 -0.34 0.68 0 0 Z " fill="#F3F5F4" transform="translate(297,296)"/>
<path d="M0 0 C0.94552734 -0.00128906 1.89105469 -0.00257813 2.86523438 -0.00390625 C4.35313477 0.00189453 4.35313477 0.00189453 5.87109375 0.0078125 C7.31838867 0.00201172 7.31838867 0.00201172 8.79492188 -0.00390625 C14.71337263 0.00408626 20.43928172 0.36962022 26.30859375 1.1328125 C25.31859375 1.4628125 24.32859375 1.7928125 23.30859375 2.1328125 C22.97859375 2.7928125 22.64859375 3.4528125 22.30859375 4.1328125 C19.37999688 4.1328125 16.47296219 4.03288838 13.546875 3.9140625 C12.42861328 3.86894531 11.31035156 3.82382812 10.15820312 3.77734375 C8.99095703 3.72964844 7.82371094 3.68195312 6.62109375 3.6328125 C5.44224609 3.58511719 4.26339844 3.53742187 3.04882812 3.48828125 C0.13539446 3.37032847 -2.77801538 3.25181684 -5.69140625 3.1328125 C-6.02140625 2.4728125 -6.35140625 1.8128125 -6.69140625 1.1328125 C-4.26743467 -0.07917329 -2.70641867 0.00357485 0 0 Z " fill="#E2EDEF" transform="translate(172.69140625,535.8671875)"/>
<path d="M0 0 C4.92249987 0.46148436 9.27737682 2.80390169 13 6 C13 6.99 13 7.98 13 9 C8.71 9 4.42 9 0 9 C0 6.03 0 3.06 0 0 Z " fill="#F3F4F4" transform="translate(881,530)"/>
<path d="M0 0 C2 2 2 2 2 4 C-1.45745022 4.22527296 -4.91587025 4.42733544 -8.375 4.625 C-9.85226562 4.72167969 -9.85226562 4.72167969 -11.359375 4.8203125 C-12.30039062 4.871875 -13.24140625 4.9234375 -14.2109375 4.9765625 C-15.08024902 5.02893066 -15.94956055 5.08129883 -16.84521484 5.13525391 C-19 5 -19 5 -21 3 C-13.55805484 0.06603516 -7.9161099 -1.78750869 0 0 Z " fill="#EEF2F3" transform="translate(739,503)"/>
<path d="M0 0 C5.67152369 0.27665969 9.46294096 2.87933249 14 6 C13.67 6.66 13.34 7.32 13 8 C8.71 8 4.42 8 0 8 C-0.38063221 5.6739143 -0.71269945 3.33944736 -1 1 C-0.67 0.67 -0.34 0.34 0 0 Z " fill="#F2F4F3" transform="translate(266,564)"/>
<path d="M0 0 C0.66 0.33 1.32 0.66 2 1 C-0.57784846 3.64752004 -2.91648098 5.94432065 -6 8 C-6 5 -6 5 -4.6875 3.61328125 C-3.125 2.40885417 -1.5625 1.20442708 0 0 Z M-9 7 C-8.34 7.33 -7.68 7.66 -7 8 C-12.14285714 14.57142857 -12.14285714 14.57142857 -16 16 C-16 13 -16 13 -14.46875 11.39453125 C-13.49421875 10.61142578 -13.49421875 10.61142578 -12.5 9.8125 C-11.8503125 9.28269531 -11.200625 8.75289062 -10.53125 8.20703125 C-10.0259375 7.80871094 -9.520625 7.41039062 -9 7 Z M-19 15 C-18.34 15.33 -17.68 15.66 -17 16 C-18 19 -18 19 -20.0625 20.1875 C-20.701875 20.455625 -21.34125 20.72375 -22 21 C-22 18 -22 18 -20.5 16.3125 C-19.7575 15.6628125 -19.7575 15.6628125 -19 15 Z M-25 20 C-24.34 20.33 -23.68 20.66 -23 21 C-23.99 21 -24.98 21 -26 21 C-25.67 20.67 -25.34 20.34 -25 20 Z " fill="#ECF3F4" transform="translate(1231,584)"/>
<path d="M0 0 C3.3 0 6.6 0 10 0 C10 0.99 10 1.98 10 3 C8.03125 4.60546875 8.03125 4.60546875 5.5 6.1875 C4.6646875 6.71730469 3.829375 7.24710938 2.96875 7.79296875 C2.3190625 8.19128906 1.669375 8.58960938 1 9 C0 8 0 8 -0.09765625 6.15234375 C-0.06510417 4.1015625 -0.03255208 2.05078125 0 0 Z " fill="#F1F4F4" transform="translate(1206,572)"/>
<path d="M0 0 C0.66 0.33 1.32 0.66 2 1 C2 3.64 2 6.28 2 9 C-1.3 9 -4.6 9 -8 9 C-6.94250081 4.77000325 -6.79967512 4.45069644 -3.4375 2.25 C-2.79683594 1.82203125 -2.15617187 1.3940625 -1.49609375 0.953125 C-1.00238281 0.63859375 -0.50867188 0.3240625 0 0 Z " fill="#F1F4F4" transform="translate(490,628)"/>
<path d="M0 0 C0 0.66 0 1.32 0 2 C-1.98 2.99 -1.98 2.99 -4 4 C-4 4.66 -4 5.32 -4 6 C-6.97 6 -9.94 6 -13 6 C-13.33 5.01 -13.66 4.02 -14 3 C-12.23050388 2.49528803 -10.45934777 1.99639315 -8.6875 1.5 C-7.70136719 1.2215625 -6.71523438 0.943125 -5.69921875 0.65625 C-3 0 -3 0 0 0 Z " fill="#E6EEF1" transform="translate(1005,436)"/>
<path d="M0 0 C0.66 0.33 1.32 0.66 2 1 C1.625 3.9375 1.625 3.9375 1 7 C0.01 7.495 0.01 7.495 -1 8 C-1.72159424 9.64363134 -2.39351421 11.31050386 -3 13 C-3.33 13 -3.66 13 -4 13 C-4 9.7 -4 6.4 -4 3 C-2.68 3 -1.36 3 0 3 C0 2.01 0 1.02 0 0 Z " fill="#EFF2F2" transform="translate(108,634)"/>
<path d="M0 0 C0.33 0.99 0.66 1.98 1 3 C-1.77648219 5.11391258 -4.60034879 7.12112393 -7.5 9.0625 C-8.2528125 9.56910156 -9.005625 10.07570313 -9.78125 10.59765625 C-11.80730672 11.8782097 -13.83682881 12.97249368 -16 14 C-12.56846086 10.46808678 -9.02624938 7.2862495 -5.1875 4.1875 C-4.21167969 3.39730469 -3.23585938 2.60710938 -2.23046875 1.79296875 C-1.49441406 1.20128906 -0.75835938 0.60960937 0 0 Z " fill="#083C6E" transform="translate(1196,589)"/>
<path d="M0 0 C0 0.99 0 1.98 0 3 C-0.66 3 -1.32 3 -2 3 C-2 4.65 -2 6.3 -2 8 C-3.65 8 -5.3 8 -7 8 C-6.67 6.02 -6.34 4.04 -6 2 C-4.02 1.34 -2.04 0.68 0 0 Z " fill="#FBFCFB" transform="translate(1175,629)"/>
<path d="M0 0 C0.99 0.33 1.98 0.66 3 1 C-2.31147541 6.75409836 -2.31147541 6.75409836 -6 7 C-6.99 6.67 -7.98 6.34 -9 6 C-6.11861791 3.75892504 -3.25320657 1.66831106 0 0 Z " fill="#F4F6F7" transform="translate(1241,673)"/>
<path d="M0 0 C0 3 0 3 0 3 Z M-3 2 C-2.34 2.33 -1.68 2.66 -1 3 C-1.33 3.99 -1.66 4.98 -2 6 C-5.0625 7.1875 -5.0625 7.1875 -8 8 C-6.35 6.02 -4.7 4.04 -3 2 Z M-10 8 C-9.34 8.33 -8.68 8.66 -8 9 C-11.465 11.97 -11.465 11.97 -15 15 C-13.38262276 11.76524552 -12.52370777 10.29427979 -10 8 Z " fill="#E7F0F2" transform="translate(1028,268)"/>
<path d="M0 0 C0.96808594 -0.01417969 1.93617187 -0.02835938 2.93359375 -0.04296875 C5.5625 0.1875 5.5625 0.1875 8.5625 2.1875 C6.64746326 2.41031874 4.73033494 2.61521076 2.8125 2.8125 C1.74515625 2.92851563 0.6778125 3.04453125 -0.421875 3.1640625 C-3.47542399 3.18779475 -4.89912421 2.80170985 -7.4375 1.1875 C-4.84996844 -0.10626578 -2.88791015 0.01917603 0 0 Z " fill="#E4EBEC" transform="translate(1182.4375,668.8125)"/>
<path d="M0 0 C2.875 -0.125 2.875 -0.125 6 0 C8 2 8 2 8 4 C5.1080406 4.96398647 3.0005625 5 0 5 C0 3.35 0 1.7 0 0 Z " fill="#F0F3F3" transform="translate(1044,344)"/>
<path d="M0 0 C-0.33 1.32 -0.66 2.64 -1 4 C-1 3.34 -1 2.68 -1 2 C-2.258125 2.37125 -3.51625 2.7425 -4.8125 3.125 C-6.95703125 3.7578125 -6.95703125 3.7578125 -9 4 C-9.99 3.34 -10.98 2.68 -12 2 C-10.56656 1.46809459 -9.12804633 0.94984742 -7.6875 0.4375 C-6.48673828 0.00244141 -6.48673828 0.00244141 -5.26171875 -0.44140625 C-3 -1 -3 -1 0 0 Z " fill="#E6EEF0" transform="translate(1206,691)"/>
<path d="M0 0 C0.33 0.66 0.66 1.32 1 2 C1.66 2.33 2.32 2.66 3 3 C3.33 3.99 3.66 4.98 4 6 C2.39402675 5.54803755 0.79027492 5.08817673 -0.8125 4.625 C-1.70582031 4.36976563 -2.59914063 4.11453125 -3.51953125 3.8515625 C-6 3 -6 3 -9 1 C-4.545 0.505 -4.545 0.505 0 0 Z " fill="#E5EEF1" transform="translate(533,409)"/>
<path d="M0 0 C4.9723422 1.49170266 9.41845739 3.60457417 14 6 C13.01 7.485 13.01 7.485 12 9 C11.30132812 8.57847656 10.60265625 8.15695312 9.8828125 7.72265625 C8.97273438 7.17480469 8.06265625 6.62695312 7.125 6.0625 C6.22007812 5.51722656 5.31515625 4.97195313 4.3828125 4.41015625 C2.94798364 3.56101983 1.49124552 2.74562276 0 2 C0 1.34 0 0.68 0 0 Z " fill="#E5EFF2" transform="translate(436,392)"/>
<path d="M0 0 C0.66 0.33 1.32 0.66 2 1 C1.525625 1.37125 1.05125 1.7425 0.5625 2.125 C-1.52205802 4.62646962 -1.64621491 6.81593418 -2 10 C-3.98 10.33 -5.96 10.66 -8 11 C-7.401875 10.278125 -6.80375 9.55625 -6.1875 8.8125 C-4.22501406 6.28930379 -2.60738893 3.75552389 -1 1 C-0.67 0.67 -0.34 0.34 0 0 Z " fill="#F1F5F5" transform="translate(300,367)"/>
<path d="M0 0 C0.33 0.66 0.66 1.32 1 2 C-4.64825598 3.22124454 -9.32652928 2.74406173 -15 2 C-15 1.67 -15 1.34 -15 1 C-9.9752761 0.37470103 -5.07471573 -0.13012092 0 0 Z " fill="#CDDFE6" transform="translate(435,707)"/>
<path d="M0 0 C-2.48952921 2.66735273 -4.63408134 4.55746343 -8 6 C-8 4.02 -8 2.04 -8 0 C-4.71303767 -0.79953138 -3.28976808 -1.09658936 0 0 Z " fill="#F0F2F2" transform="translate(1266,540)"/>
<path d="M0 0 C3.21043882 1.38188453 5.04936365 2.92421903 7.25 5.625 C8.03117188 6.57246094 8.03117188 6.57246094 8.828125 7.5390625 C9.40820312 8.26222656 9.40820312 8.26222656 10 9 C7 9 7 9 5.17578125 7.5390625 C4.56089844 6.90742188 3.94601562 6.27578125 3.3125 5.625 C2.68988281 4.99851562 2.06726563 4.37203125 1.42578125 3.7265625 C0 2 0 2 0 0 Z " fill="#1B527D" transform="translate(651,374)"/>
<path d="M0 0 C5.02254631 -0.2954439 7.89542386 0.01485372 12 3 C9.64710301 4.1764485 8.58181049 4.03475851 6 3.75 C5.29875 3.68296875 4.5975 3.6159375 3.875 3.546875 C2 3 2 3 0 0 Z " fill="#094474" transform="translate(1463,696)"/>
<path d="M0 0 C2.97 0 5.94 0 9 0 C9.33 0.99 9.66 1.98 10 3 C5.71 3 1.42 3 -3 3 C-2.01 2.67 -1.02 2.34 0 2 C0 1.34 0 0.68 0 0 Z " fill="#ECF2F3" transform="translate(118,571)"/>
<path d="M0 0 C0.99 0 1.98 0 3 0 C2.67 1.32 2.34 2.64 2 4 C2.66 4 3.32 4 4 4 C4 4.66 4 5.32 4 6 C1.69 6.33 -0.62 6.66 -3 7 C-1.125 2.25 -1.125 2.25 0 0 Z " fill="#EBF0F1" transform="translate(1283,404)"/>
<path d="M0 0 C0 3 0 3 -1.75 5.25 C-4 7 -4 7 -6.25 6.75 C-6.8275 6.5025 -7.405 6.255 -8 6 C-5.51047079 3.33264727 -3.36591866 1.44253657 0 0 Z " fill="#EDF2F3" transform="translate(50,729)"/>
<path d="M0 0 C5.75 1.75 5.75 1.75 8 4 C4.37 4 0.74 4 -3 4 C-2.67 3.34 -2.34 2.68 -2 2 C-1.34 2 -0.68 2 0 2 C0 1.34 0 0.68 0 0 Z " fill="#F9FBFC" transform="translate(629,430)"/>
<path d="M0 0 C0.66 0.66 1.32 1.32 2 2 C-0.31 4.31 -2.62 6.62 -5 9 C-5.99 8.67 -6.98 8.34 -8 8 C-5.33333333 5.33333333 -2.66666667 2.66666667 0 0 Z " fill="#074372" transform="translate(864,394)"/>
<path d="M0 0 C0 0.66 0 1.32 0 2 C0.94875 2.103125 1.8975 2.20625 2.875 2.3125 C6 3 6 3 8 6 C6.41531323 5.54636829 4.83230076 5.08688548 3.25 4.625 C2.36828125 4.36976563 1.4865625 4.11453125 0.578125 3.8515625 C-1.76080572 3.0790066 -3.83442562 2.16374324 -6 1 C-4 0 -4 0 0 0 Z " fill="#E6F1F3" transform="translate(481,219)"/>
<path d="M0 0 C3.45195767 1.4258086 5.1014256 3.09746334 7.25 6.125 C8.03117187 7.21167969 8.03117187 7.21167969 8.828125 8.3203125 C9.40820312 9.15175781 9.40820312 9.15175781 10 10 C6.4628562 9.43867066 5.00738321 8.30442253 2.75 5.5625 C1.96882813 4.63630859 1.96882813 4.63630859 1.171875 3.69140625 C0 2 0 2 0 0 Z " fill="#E4EEF0" transform="translate(1378,605)"/>
<path d="M0 0 C0.66 0.33 1.32 0.66 2 1 C1.67 1.66 1.34 2.32 1 3 C0.01 3 -0.98 3 -2 3 C-2.2475 3.639375 -2.495 4.27875 -2.75 4.9375 C-4 7 -4 7 -6.125 7.75 C-7.053125 7.87375 -7.053125 7.87375 -8 8 C-8 7.01 -8 6.02 -8 5 C-6.3203125 3.578125 -6.3203125 3.578125 -4.125 2.25 C-3.40570312 1.80140625 -2.68640625 1.3528125 -1.9453125 0.890625 C-1.30335937 0.59671875 -0.66140625 0.3028125 0 0 Z " fill="#E7F0F2" transform="translate(1259,565)"/>
<path d="M0 0 C0.99 0 1.98 0 3 0 C1.8905928 3.48670834 0.73662334 6.77484237 -1 10 C-1.66 10 -2.32 10 -3 10 C-2.49287967 6.28111761 -1.88391785 3.26545761 0 0 Z " fill="#EDF3F3" transform="translate(1290,390)"/>
<path d="M0 0 C1.258125 -0.04125 2.51625 -0.0825 3.8125 -0.125 C4.52019531 -0.14820313 5.22789063 -0.17140625 5.95703125 -0.1953125 C8 0 8 0 11 2 C7.37 2.33 3.74 2.66 0 3 C0 2.01 0 1.02 0 0 Z " fill="#EEF3F4" transform="translate(1192,669)"/>
<path d="M0 0 C4.11979807 1.37326602 7.04297546 4.08595092 9 8 C4.62140745 7.49477778 2.18348776 4.82172778 -1 2 C-0.67 1.34 -0.34 0.68 0 0 Z " fill="#E5F0F1" transform="translate(1029,638)"/>
<path d="M0 0 C0.66 0.33 1.32 0.66 2 1 C-1.625 5.875 -1.625 5.875 -5 7 C-5.66 6.34 -6.32 5.68 -7 5 C-4.69 3.35 -2.38 1.7 0 0 Z " fill="#EDF4F4" transform="translate(666,536)"/>
<path d="M0 0 C2.475 0.495 2.475 0.495 5 1 C5 1.66 5 2.32 5 3 C6.65 3.33 8.3 3.66 10 4 C10 4.66 10 5.32 10 6 C6.7 5.01 3.4 4.02 0 3 C0 2.01 0 1.02 0 0 Z " fill="#E8F1F2" transform="translate(502,400)"/>
<path d="M0 0 C-2.64 1.65 -5.28 3.3 -8 5 C-8.66 4.34 -9.32 3.68 -10 3 C-6.66627332 -0.65122445 -4.99473142 -1.24868285 0 0 Z " fill="#ECF3F5" transform="translate(1161,343)"/>
<path d="M0 0 C2.31 0 4.62 0 7 0 C3.58983503 2.86453858 0.09305456 4.34703566 -4 6 C-3.67 5.01 -3.34 4.02 -3 3 C-2.34 3 -1.68 3 -1 3 C-0.67 2.01 -0.34 1.02 0 0 Z " fill="#DDEAED" transform="translate(314,331)"/>
<path d="M0 0 C1.1875 1.6875 1.1875 1.6875 2 4 C0.8125 6.75 0.8125 6.75 -1 9 C-1.99 9 -2.98 9 -4 9 C-3.67 7.68 -3.34 6.36 -3 5 C-2.34 5 -1.68 5 -1 5 C-0.67 3.35 -0.34 1.7 0 0 Z " fill="#ECF2F2" transform="translate(820,473)"/>
<path d="M0 0 C4.98012761 1.50912958 8.24259942 4.55661849 12 8 C8.21516391 8 7.22592069 6.89417485 4.3125 4.5625 C3.50425781 3.92441406 2.69601562 3.28632813 1.86328125 2.62890625 C1.24839844 2.09136719 0.63351562 1.55382812 0 1 C0 0.67 0 0.34 0 0 Z " fill="#083A6C" transform="translate(1237,248)"/>
<path d="M0 0 C5.75 1.875 5.75 1.875 8 3 C7.67 3.99 7.34 4.98 7 6 C5.68 6 4.36 6 3 6 C2.67 4.68 2.34 3.36 2 2 C1.34 2 0.68 2 0 2 C0 1.34 0 0.68 0 0 Z " fill="#ECF3F4" transform="translate(490,243)"/>
<path d="M0 0 C0.99 0.33 1.98 0.66 3 1 C3 1.99 3 2.98 3 4 C-0.465 5.485 -0.465 5.485 -4 7 C-2.79618552 4.50638429 -1.54571278 2.31856917 0 0 Z " fill="#E9EFF0" transform="translate(67,600)"/>
<path d="M0 0 C0.66 0.33 1.32 0.66 2 1 C0.1875 3 0.1875 3 -2 5 C-4.62113708 5 -6.50935112 4.68707555 -9 4 C-7.54618103 3.30300448 -6.08677047 2.61766134 -4.625 1.9375 C-3.40683594 1.36322266 -3.40683594 1.36322266 -2.1640625 0.77734375 C-1.44992187 0.52082031 -0.73578125 0.26429688 0 0 Z " fill="#E5EFF0" transform="translate(666,497)"/>
<path d="M0 0 C2.475 0.99 2.475 0.99 5 2 C5 4.31 5 6.62 5 9 C4.01 9.495 4.01 9.495 3 10 C2.87625 8.906875 2.7525 7.81375 2.625 6.6875 C2.24535199 2.92618198 2.24535199 2.92618198 0 0 Z " fill="#184C79" transform="translate(715,480)"/>
<path d="M0 0 C4.12751449 0.60698743 7.3321148 2.03810791 11 4 C10.34 4.66 9.68 5.32 9 6 C7.68397477 5.38245741 6.37226444 4.75571258 5.0625 4.125 C4.33160156 3.77695312 3.60070312 3.42890625 2.84765625 3.0703125 C1 2 1 2 0 0 Z " fill="#E3EDEF" transform="translate(590,411)"/>
<path d="M0 0 C-1.44253657 3.36591866 -3.33264727 5.51047079 -6 8 C-6.66 7.67 -7.32 7.34 -8 7 C-6.76759083 3.3027725 -4.20634615 0 0 0 Z " fill="#F3F6F6" transform="translate(895,390)"/>
<path d="M0 0 C0.86625 0.556875 0.86625 0.556875 1.75 1.125 C-4 3.125 -4 3.125 -6.25 3.125 C-6.25 2.465 -6.25 1.805 -6.25 1.125 C-2.80384615 -1.09038462 -2.80384615 -1.09038462 0 0 Z M1.75 -0.875 C3.75 0.125 3.75 0.125 3.75 0.125 Z " fill="#E7EFF0" transform="translate(407.25,680.875)"/>
<path d="M0 0 C0 0.99 0 1.98 0 3 C-3.375 3.125 -3.375 3.125 -7 3 C-7.66 2.34 -8.32 1.68 -9 1 C-5.846632 0.29925156 -3.27275026 0 0 0 Z " fill="#E6EEF1" transform="translate(1326,538)"/>
<path d="M0 0 C1.98 0 3.96 0 6 0 C5.814375 0.598125 5.62875 1.19625 5.4375 1.8125 C4.77906313 4.16408762 4.77906313 4.16408762 6 7 C3.00675737 5.9024777 2.15389099 5.32317108 0.75 2.375 C0.5025 1.59125 0.255 0.8075 0 0 Z " fill="#EAF1F1" transform="translate(996,539)"/>
<path d="M0 0 C0.66 0.33 1.32 0.66 2 1 C-0.31 3.64 -2.62 6.28 -5 9 C-5.99 8.34 -6.98 7.68 -8 7 C-5.36 4.69 -2.72 2.38 0 0 Z " fill="#063C6E" transform="translate(884,376)"/>
<path d="M0 0 C4.29 0 8.58 0 13 0 C13 0.33 13 0.66 13 1 C10.36 1 7.72 1 5 1 C5 1.66 5 2.32 5 3 C3.0625 2.625 3.0625 2.625 1 2 C0.67 1.34 0.34 0.68 0 0 Z " fill="#FBFDFC" transform="translate(394,341)"/>
<path d="M0 0 C0.99 0.33 1.98 0.66 3 1 C2.34 2.65 1.68 4.3 1 6 C0.67 5.34 0.34 4.68 0 4 C-2.52733235 3.34444881 -2.52733235 3.34444881 -5 3 C-2 1 -2 1 0 0 Z " fill="#EAEFF0" transform="translate(1075,240)"/>
<path d="M0 0 C-0.33 0.99 -0.66 1.98 -1 3 C-3.31 3.33 -5.62 3.66 -8 4 C-8 3.01 -8 2.02 -8 1 C-5.23735711 0.40267181 -2.83967231 0 0 0 Z " fill="#DFE9ED" transform="translate(1182,697)"/>
<path d="M0 0 C0.99 0.66 1.98 1.32 3 2 C2.34 2 1.68 2 1 2 C1 2.66 1 3.32 1 4 C-1.31 4 -3.62 4 -6 4 C-5 2 -5 2 -2.625 0.75 C-1.75875 0.5025 -0.8925 0.255 0 0 Z " fill="#ECF4F5" transform="translate(389,687)"/>
<path d="M0 0 C2.97 0 5.94 0 9 0 C9 0.66 9 1.32 9 2 C6.36 2.33 3.72 2.66 1 3 C0.67 2.01 0.34 1.02 0 0 Z " fill="#EBF2F3" transform="translate(1334,536)"/>
<path d="M0 0 C4.31392226 0.4793247 6.16569547 1.7457985 9 5 C5.85262818 4.30058404 2.97411124 3.23921302 0 2 C0 1.34 0 0.68 0 0 Z " fill="#EBF2F4" transform="translate(67,717)"/>
<path d="M0 0 C0.33 0 0.66 0 1 0 C1 2.97 1 5.94 1 9 C0.01 9 -0.98 9 -2 9 C-2 7.02 -2 5.04 -2 3 C-1.34 3 -0.68 3 0 3 C0 2.01 0 1.02 0 0 Z " fill="#EFF5F6" transform="translate(20,669)"/>
<path d="M0 0 C0.33 0.99 0.66 1.98 1 3 C-0.32 4.32 -1.64 5.64 -3 7 C-3.99 6.34 -4.98 5.68 -6 5 C-4.02 3.35 -2.04 1.7 0 0 Z " fill="#0C4676" transform="translate(489,606)"/>
<path d="M0 0 C2.97 0.33 5.94 0.66 9 1 C5 3 5 3 2 4 C1.34 2.68 0.68 1.36 0 0 Z " fill="#F5F6F4" transform="translate(928,539)"/>
<path d="M0 0 C0 0.66 0 1.32 0 2 C-6.0546875 2.1953125 -6.0546875 2.1953125 -8 2 C-8.66 1.34 -9.32 0.68 -10 0 C-6.30581799 -1.231394 -3.7943739 -0.64432764 0 0 Z " fill="#F0F2F2" transform="translate(1090,408)"/>
<path d="M0 0 C1 2 1 2 0.25 5.0625 C-0.1625 6.031875 -0.575 7.00125 -1 8 C-1.99 8.33 -2.98 8.66 -4 9 C-2.94124926 5.59687262 -1.99097846 2.98646769 0 0 Z " fill="#063B6C" transform="translate(1271,391)"/>
<path d="M0 0 C-2.93828597 2.50298434 -5.17902761 3.46930939 -9 4 C-8 1 -8 1 -5.625 -0.25 C-3 -1 -3 -1 0 0 Z " fill="#EEF4F4" transform="translate(1079,357)"/>
<path d="M0 0 C1.65 0.33 3.3 0.66 5 1 C2.31158141 3.25245881 0.35358125 4.88213958 -3 6 C-2.67 5.01 -2.34 4.02 -2 3 C-1.34 3 -0.68 3 0 3 C0 2.01 0 1.02 0 0 Z " fill="#E1EBEF" transform="translate(1139,353)"/>
<path d="M0 0 C2.31 0 4.62 0 7 0 C7.33 0.99 7.66 1.98 8 3 C5.36 2.67 2.72 2.34 0 2 C0 1.34 0 0.68 0 0 Z " fill="#E9EFF2" transform="translate(1213,325)"/>
<path d="M0 0 C4.2742558 1.5830577 6.26531794 4.50568404 9 8 C5.56247993 6.4722133 2.81046312 4.49818944 0 2 C0 1.34 0 0.68 0 0 Z " fill="#0C4372" transform="translate(1251,259)"/>
<path d="M0 0 C0.66 0.33 1.32 0.66 2 1 C-0.48952921 3.66735273 -2.63408134 5.55746343 -6 7 C-4.60667426 3.63279613 -3.0210714 2.0140476 0 0 Z " fill="#063E6E" transform="translate(576,531)"/>
<path d="M0 0 C-0.33 0.99 -0.66 1.98 -1 3 C-1.99 3 -2.98 3 -4 3 C-4 2.34 -4 1.68 -4 1 C-5.32 0.67 -6.64 0.34 -8 0 C-4.94736336 -0.98120464 -3.05263664 -0.98120464 0 0 Z " fill="#D7E6EB" transform="translate(979,444)"/>
<path d="M0 0 C0.66 0.33 1.32 0.66 2 1 C0.35 2.98 -1.3 4.96 -3 7 C-3.99 6.34 -4.98 5.68 -6 5 C-4.02 3.35 -2.04 1.7 0 0 Z " fill="#EFF5F5" transform="translate(997,296)"/>
</svg>
